<?xml version="1.0" encoding="UTF-8" standalone="no"?>
<!DOCTYPE svg PUBLIC "-//W3C//DTD SVG 1.1//EN"
 "http://www.w3.org/Graphics/SVG/1.1/DTD/svg11.dtd">
<!-- Generated by graphviz version 2.44.1 (20200629.0846)
 -->
<!-- Title: dependencies Pages: 1 -->
<svg width="504pt" height="211pt"
 viewBox="0.00 0.00 504.00 211.00" xmlns="http://www.w3.org/2000/svg" xmlns:xlink="http://www.w3.org/1999/xlink">
<g id="graph0" class="graph" transform="scale(1 1) rotate(0) translate(4 207)">
<title>dependencies</title>
<polygon fill="white" stroke="transparent" points="-4,4 -4,-207 500,-207 500,4 -4,4"/>
<text text-anchor="start" x="227.01" y="-42.4" font-family="sans-serif" font-weight="bold" font-size="14.00">Legend</text>
<polygon fill="#ffffb3" stroke="transparent" points="14,-10 14,-30 34,-30 34,-10 14,-10"/>
<text text-anchor="start" x="37.63" y="-15.4" font-family="sans-serif" font-size="14.00"> &#160;Declarations</text>
<polygon fill="#8dd3c7" stroke="transparent" points="127,-10 127,-30 147,-30 147,-10 127,-10"/>
<text text-anchor="start" x="150.73" y="-15.4" font-family="sans-serif" font-size="14.00"> &#160;Module</text>
<polygon fill="#80b1d3" stroke="transparent" points="213,-10 213,-30 233,-30 233,-10 213,-10"/>
<text text-anchor="start" x="236.78" y="-15.4" font-family="sans-serif" font-size="14.00"> &#160;Bootstrap</text>
<polygon fill="#fdb462" stroke="transparent" points="310,-10 310,-30 330,-30 330,-10 310,-10"/>
<text text-anchor="start" x="333.67" y="-15.4" font-family="sans-serif" font-size="14.00"> &#160;Providers</text>
<polygon fill="#fb8072" stroke="transparent" points="406,-10 406,-30 426,-30 426,-10 406,-10"/>
<text text-anchor="start" x="429.73" y="-15.4" font-family="sans-serif" font-size="14.00"> &#160;Exports</text>
<g id="clust1" class="cluster">
<title>cluster_LandingPageComponent</title>
<polygon fill="none" stroke="black" stroke-dasharray="1,5" points="20.5,-70 20.5,-195 475.5,-195 475.5,-70 20.5,-70"/>
</g>
<g id="clust2" class="cluster">
<title>cluster_LandingPageComponent_declarations</title>
<polygon fill="none" stroke="black" points="28.5,-78 28.5,-130 467.5,-130 467.5,-78 28.5,-78"/>
</g>
<!-- CreateProposalComponent -->
<g id="node1" class="node">
<title>CreateProposalComponent</title>
<polygon fill="#ffffb3" stroke="black" points="459.86,-122 293.14,-122 293.14,-86 459.86,-86 459.86,-122"/>
<text text-anchor="middle" x="376.5" y="-99.8" font-family="Times,serif" font-size="14.00">CreateProposalComponent</text>
</g>
<!-- LandingPageComponent -->
<g id="node4" class="node">
<title>LandingPageComponent</title>
<polygon fill="#8dd3c7" stroke="black" points="298.2,-187 295.2,-191 274.2,-191 271.2,-187 142.8,-187 142.8,-151 298.2,-151 298.2,-187"/>
<text text-anchor="middle" x="220.5" y="-164.8" font-family="Times,serif" font-size="14.00">LandingPageComponent</text>
</g>
<!-- CreateProposalComponent&#45;&gt;LandingPageComponent -->
<g id="edge1" class="edge">
<title>CreateProposalComponent&#45;&gt;LandingPageComponent</title>
<path fill="none" stroke="black" d="M293.14,-104C287.45,-104 283.92,-104 283.92,-104 283.92,-104 283.92,-140.89 283.92,-140.89"/>
<polygon fill="black" stroke="black" points="280.42,-140.89 283.92,-150.89 287.42,-140.89 280.42,-140.89"/>
</g>
<!-- FeedComponent -->
<g id="node2" class="node">
<title>FeedComponent</title>
<polygon fill="#ffffb3" stroke="black" points="274.55,-122 166.45,-122 166.45,-86 274.55,-86 274.55,-122"/>
<text text-anchor="middle" x="220.5" y="-99.8" font-family="Times,serif" font-size="14.00">FeedComponent</text>
</g>
<!-- FeedComponent&#45;&gt;LandingPageComponent -->
<g id="edge2" class="edge">
<title>FeedComponent&#45;&gt;LandingPageComponent</title>
<path fill="none" stroke="black" d="M220.5,-122.11C220.5,-122.11 220.5,-140.99 220.5,-140.99"/>
<polygon fill="black" stroke="black" points="217,-140.99 220.5,-150.99 224,-140.99 217,-140.99"/>
</g>
<!-- FilterComponent -->
<g id="node3" class="node">
<title>FilterComponent</title>
<polygon fill="#ffffb3" stroke="black" points="148.16,-122 36.84,-122 36.84,-86 148.16,-86 148.16,-122"/>
<text text-anchor="middle" x="92.5" y="-99.8" font-family="Times,serif" font-size="14.00">FilterComponent</text>
</g>
<!-- FilterComponent&#45;&gt;LandingPageComponent -->
<g id="edge3" class="edge">
<title>FilterComponent&#45;&gt;LandingPageComponent</title>
<path fill="none" stroke="black" d="M148.27,-104C153.72,-104 157.28,-104 157.28,-104 157.28,-104 157.28,-140.89 157.28,-140.89"/>
<polygon fill="black" stroke="black" points="153.78,-140.89 157.28,-150.89 160.78,-140.89 153.78,-140.89"/>
</g>
</g>
</svg>
