<?xml version="1.0" encoding="UTF-8" standalone="no"?>
<!DOCTYPE svg PUBLIC "-//W3C//DTD SVG 1.1//EN"
 "http://www.w3.org/Graphics/SVG/1.1/DTD/svg11.dtd">
<!-- Generated by graphviz version 2.44.1 (20200629.0846)
 -->
<!-- Title: dependencies Pages: 1 -->
<svg width="3581pt" height="284pt"
 viewBox="0.00 0.00 3581.00 284.00" xmlns="http://www.w3.org/2000/svg" xmlns:xlink="http://www.w3.org/1999/xlink">
<g id="graph0" class="graph" transform="scale(1 1) rotate(0) translate(4 280)">
<title>dependencies</title>
<polygon fill="white" stroke="transparent" points="-4,4 -4,-280 3577,-280 3577,4 -4,4"/>
<text text-anchor="start" x="1765.51" y="-42.4" font-family="sans-serif" font-weight="bold" font-size="14.00">Legend</text>
<polygon fill="#ffffb3" stroke="transparent" points="1552.5,-10 1552.5,-30 1572.5,-30 1572.5,-10 1552.5,-10"/>
<text text-anchor="start" x="1576.13" y="-15.4" font-family="sans-serif" font-size="14.00"> &#160;Declarations</text>
<polygon fill="#8dd3c7" stroke="transparent" points="1665.5,-10 1665.5,-30 1685.5,-30 1685.5,-10 1665.5,-10"/>
<text text-anchor="start" x="1689.23" y="-15.4" font-family="sans-serif" font-size="14.00"> &#160;Module</text>
<polygon fill="#80b1d3" stroke="transparent" points="1751.5,-10 1751.5,-30 1771.5,-30 1771.5,-10 1751.5,-10"/>
<text text-anchor="start" x="1775.28" y="-15.4" font-family="sans-serif" font-size="14.00"> &#160;Bootstrap</text>
<polygon fill="#fdb462" stroke="transparent" points="1848.5,-10 1848.5,-30 1868.5,-30 1868.5,-10 1848.5,-10"/>
<text text-anchor="start" x="1872.17" y="-15.4" font-family="sans-serif" font-size="14.00"> &#160;Providers</text>
<polygon fill="#fb8072" stroke="transparent" points="1944.5,-10 1944.5,-30 1964.5,-30 1964.5,-10 1944.5,-10"/>
<text text-anchor="start" x="1968.23" y="-15.4" font-family="sans-serif" font-size="14.00"> &#160;Exports</text>
<g id="clust1" class="cluster">
<title>cluster_AppModule</title>
<polygon fill="none" stroke="black" stroke-dasharray="1,5" points="8,-70 8,-268 3565,-268 3565,-70 8,-70"/>
</g>
<g id="clust2" class="cluster">
<title>cluster_AppModule_declarations</title>
<polygon fill="none" stroke="black" points="1106,-78 1106,-130 3557,-130 3557,-78 1106,-78"/>
</g>
<g id="clust19" class="cluster">
<title>cluster_AppModule_imports</title>
<polygon fill="none" stroke="black" points="954,-78 954,-130 1098,-130 1098,-78 954,-78"/>
</g>
<g id="clust21" class="cluster">
<title>cluster_AppModule_bootstrap</title>
<polygon fill="none" stroke="black" points="1830,-208 1830,-260 1954,-260 1954,-208 1830,-208"/>
</g>
<g id="clust22" class="cluster">
<title>cluster_AppModule_providers</title>
<polygon fill="none" stroke="black" points="16,-78 16,-130 946,-130 946,-78 16,-78"/>
</g>
<!-- ApiResponseComponent -->
<g id="node1" class="node">
<title>ApiResponseComponent</title>
<polygon fill="#ffffb3" stroke="black" points="3548.98,-122 3393.02,-122 3393.02,-86 3548.98,-86 3548.98,-122"/>
<text text-anchor="middle" x="3471" y="-99.8" font-family="Times,serif" font-size="14.00">ApiResponseComponent</text>
</g>
<!-- AppModule -->
<g id="node17" class="node">
<title>AppModule</title>
<polygon fill="#8dd3c7" stroke="black" points="1933.66,-187 1930.66,-191 1909.66,-191 1906.66,-187 1850.34,-187 1850.34,-151 1933.66,-151 1933.66,-187"/>
<text text-anchor="middle" x="1892" y="-164.8" font-family="Times,serif" font-size="14.00">AppModule</text>
</g>
<!-- ApiResponseComponent&#45;&gt;AppModule -->
<g id="edge1" class="edge">
<title>ApiResponseComponent&#45;&gt;AppModule</title>
<path fill="none" stroke="black" d="M3471,-122.15C3471,-145.76 3471,-184 3471,-184 3471,-184 1943.83,-184 1943.83,-184"/>
<polygon fill="black" stroke="black" points="1943.83,-180.5 1933.83,-184 1943.83,-187.5 1943.83,-180.5"/>
</g>
<!-- AppComponent -->
<g id="node2" class="node">
<title>AppComponent</title>
<polygon fill="#ffffb3" stroke="black" points="3374.94,-122 3269.06,-122 3269.06,-86 3374.94,-86 3374.94,-122"/>
<text text-anchor="middle" x="3322" y="-99.8" font-family="Times,serif" font-size="14.00">AppComponent</text>
</g>
<!-- AppComponent&#45;&gt;AppModule -->
<g id="edge2" class="edge">
<title>AppComponent&#45;&gt;AppModule</title>
<path fill="none" stroke="black" d="M3322,-122.25C3322,-145.02 3322,-181 3322,-181 3322,-181 1944.02,-181 1944.02,-181"/>
<polygon fill="black" stroke="black" points="1944.02,-177.5 1934.02,-181 1944.02,-184.5 1944.02,-177.5"/>
</g>
<!-- CommentComponent -->
<g id="node3" class="node">
<title>CommentComponent</title>
<polygon fill="#ffffb3" stroke="black" points="3251.06,-122 3114.94,-122 3114.94,-86 3251.06,-86 3251.06,-122"/>
<text text-anchor="middle" x="3183" y="-99.8" font-family="Times,serif" font-size="14.00">CommentComponent</text>
</g>
<!-- CommentComponent&#45;&gt;AppModule -->
<g id="edge3" class="edge">
<title>CommentComponent&#45;&gt;AppModule</title>
<path fill="none" stroke="black" d="M3183,-122.29C3183,-144.21 3183,-178 3183,-178 3183,-178 1943.86,-178 1943.86,-178"/>
<polygon fill="black" stroke="black" points="1943.86,-174.5 1933.86,-178 1943.86,-181.5 1943.86,-174.5"/>
</g>
<!-- CreateProposalComponent -->
<g id="node4" class="node">
<title>CreateProposalComponent</title>
<polygon fill="#ffffb3" stroke="black" points="3096.36,-122 2929.64,-122 2929.64,-86 3096.36,-86 3096.36,-122"/>
<text text-anchor="middle" x="3013" y="-99.8" font-family="Times,serif" font-size="14.00">CreateProposalComponent</text>
</g>
<!-- CreateProposalComponent&#45;&gt;AppModule -->
<g id="edge4" class="edge">
<title>CreateProposalComponent&#45;&gt;AppModule</title>
<path fill="none" stroke="black" d="M3013,-122.03C3013,-142.77 3013,-174 3013,-174 3013,-174 1943.9,-174 1943.9,-174"/>
<polygon fill="black" stroke="black" points="1943.9,-170.5 1933.9,-174 1943.9,-177.5 1943.9,-170.5"/>
</g>
<!-- ErrorComponent -->
<g id="node5" class="node">
<title>ErrorComponent</title>
<polygon fill="#ffffb3" stroke="black" points="2911.37,-122 2800.63,-122 2800.63,-86 2911.37,-86 2911.37,-122"/>
<text text-anchor="middle" x="2856" y="-99.8" font-family="Times,serif" font-size="14.00">ErrorComponent</text>
</g>
<!-- ErrorComponent&#45;&gt;AppModule -->
<g id="edge5" class="edge">
<title>ErrorComponent&#45;&gt;AppModule</title>
<path fill="none" stroke="black" d="M2856,-122.31C2856,-142.15 2856,-171 2856,-171 2856,-171 1943.73,-171 1943.73,-171"/>
<polygon fill="black" stroke="black" points="1943.73,-167.5 1933.73,-171 1943.73,-174.5 1943.73,-167.5"/>
</g>
<!-- FeedComponent -->
<g id="node6" class="node">
<title>FeedComponent</title>
<polygon fill="#ffffb3" stroke="black" points="2782.05,-122 2673.95,-122 2673.95,-86 2782.05,-86 2782.05,-122"/>
<text text-anchor="middle" x="2728" y="-99.8" font-family="Times,serif" font-size="14.00">FeedComponent</text>
</g>
<!-- FeedComponent&#45;&gt;AppModule -->
<g id="edge6" class="edge">
<title>FeedComponent&#45;&gt;AppModule</title>
<path fill="none" stroke="black" d="M2728,-122.17C2728,-141.09 2728,-168 2728,-168 2728,-168 1943.74,-168 1943.74,-168"/>
<polygon fill="black" stroke="black" points="1943.74,-164.5 1933.74,-168 1943.74,-171.5 1943.74,-164.5"/>
</g>
<!-- FilterComponent -->
<g id="node7" class="node">
<title>FilterComponent</title>
<polygon fill="#ffffb3" stroke="black" points="2655.66,-122 2544.34,-122 2544.34,-86 2655.66,-86 2655.66,-122"/>
<text text-anchor="middle" x="2600" y="-99.8" font-family="Times,serif" font-size="14.00">FilterComponent</text>
</g>
<!-- FilterComponent&#45;&gt;AppModule -->
<g id="edge7" class="edge">
<title>FilterComponent&#45;&gt;AppModule</title>
<path fill="none" stroke="black" d="M2600,-122.3C2600,-140.27 2600,-165 2600,-165 2600,-165 1943.91,-165 1943.91,-165"/>
<polygon fill="black" stroke="black" points="1943.91,-161.5 1933.91,-165 1943.91,-168.5 1943.91,-161.5"/>
</g>
<!-- ForgetPasswordComponent -->
<g id="node8" class="node">
<title>ForgetPasswordComponent</title>
<polygon fill="#ffffb3" stroke="black" points="2525.54,-122 2354.46,-122 2354.46,-86 2525.54,-86 2525.54,-122"/>
<text text-anchor="middle" x="2440" y="-99.8" font-family="Times,serif" font-size="14.00">ForgetPasswordComponent</text>
</g>
<!-- ForgetPasswordComponent&#45;&gt;AppModule -->
<g id="edge8" class="edge">
<title>ForgetPasswordComponent&#45;&gt;AppModule</title>
<path fill="none" stroke="black" d="M2440,-122.04C2440,-138.73 2440,-161 2440,-161 2440,-161 1944.09,-161 1944.09,-161"/>
<polygon fill="black" stroke="black" points="1944.09,-157.5 1934.09,-161 1944.09,-164.5 1944.09,-157.5"/>
</g>
<!-- HomeComponent -->
<g id="node9" class="node">
<title>HomeComponent</title>
<polygon fill="#ffffb3" stroke="black" points="2335.55,-122 2220.45,-122 2220.45,-86 2335.55,-86 2335.55,-122"/>
<text text-anchor="middle" x="2278" y="-99.8" font-family="Times,serif" font-size="14.00">HomeComponent</text>
</g>
<!-- HomeComponent&#45;&gt;AppModule -->
<g id="edge9" class="edge">
<title>HomeComponent&#45;&gt;AppModule</title>
<path fill="none" stroke="black" d="M2278,-122.28C2278,-137.95 2278,-158 2278,-158 2278,-158 1943.68,-158 1943.68,-158"/>
<polygon fill="black" stroke="black" points="1943.68,-154.5 1933.68,-158 1943.68,-161.5 1943.68,-154.5"/>
</g>
<!-- LandingPageComponent -->
<g id="node10" class="node">
<title>LandingPageComponent</title>
<polygon fill="#ffffb3" stroke="black" points="2202.7,-122 2047.3,-122 2047.3,-86 2202.7,-86 2202.7,-122"/>
<text text-anchor="middle" x="2125" y="-99.8" font-family="Times,serif" font-size="14.00">LandingPageComponent</text>
</g>
<!-- LandingPageComponent&#45;&gt;AppModule -->
<g id="edge10" class="edge">
<title>LandingPageComponent&#45;&gt;AppModule</title>
<path fill="none" stroke="black" d="M2125,-122.12C2125,-136.78 2125,-155 2125,-155 2125,-155 1943.92,-155 1943.92,-155"/>
<polygon fill="black" stroke="black" points="1943.92,-151.5 1933.92,-155 1943.92,-158.5 1943.92,-151.5"/>
</g>
<!-- LoginComponent -->
<g id="node11" class="node">
<title>LoginComponent</title>
<polygon fill="#ffffb3" stroke="black" points="2029.28,-122 1914.72,-122 1914.72,-86 2029.28,-86 2029.28,-122"/>
<text text-anchor="middle" x="1972" y="-99.8" font-family="Times,serif" font-size="14.00">LoginComponent</text>
</g>
<!-- LoginComponent&#45;&gt;AppModule -->
<g id="edge11" class="edge">
<title>LoginComponent&#45;&gt;AppModule</title>
<path fill="none" stroke="black" d="M1924.22,-122.11C1924.22,-122.11 1924.22,-140.99 1924.22,-140.99"/>
<polygon fill="black" stroke="black" points="1920.72,-140.99 1924.22,-150.99 1927.72,-140.99 1920.72,-140.99"/>
</g>
<!-- PasswordSpecsComponent -->
<g id="node12" class="node">
<title>PasswordSpecsComponent</title>
<polygon fill="#ffffb3" stroke="black" points="1896.64,-122 1729.36,-122 1729.36,-86 1896.64,-86 1896.64,-122"/>
<text text-anchor="middle" x="1813" y="-99.8" font-family="Times,serif" font-size="14.00">PasswordSpecsComponent</text>
</g>
<!-- PasswordSpecsComponent&#45;&gt;AppModule -->
<g id="edge12" class="edge">
<title>PasswordSpecsComponent&#45;&gt;AppModule</title>
<path fill="none" stroke="black" d="M1873.5,-122.11C1873.5,-122.11 1873.5,-140.99 1873.5,-140.99"/>
<polygon fill="black" stroke="black" points="1870,-140.99 1873.5,-150.99 1877,-140.99 1870,-140.99"/>
</g>
<!-- RegisterComponent -->
<g id="node13" class="node">
<title>RegisterComponent</title>
<polygon fill="#ffffb3" stroke="black" points="1710.98,-122 1583.02,-122 1583.02,-86 1710.98,-86 1710.98,-122"/>
<text text-anchor="middle" x="1647" y="-99.8" font-family="Times,serif" font-size="14.00">RegisterComponent</text>
</g>
<!-- RegisterComponent&#45;&gt;AppModule -->
<g id="edge13" class="edge">
<title>RegisterComponent&#45;&gt;AppModule</title>
<path fill="none" stroke="black" d="M1647,-122.12C1647,-136.78 1647,-155 1647,-155 1647,-155 1840.16,-155 1840.16,-155"/>
<polygon fill="black" stroke="black" points="1840.16,-158.5 1850.16,-155 1840.16,-151.5 1840.16,-158.5"/>
</g>
<!-- ResetLinkComponent -->
<g id="node14" class="node">
<title>ResetLinkComponent</title>
<polygon fill="#ffffb3" stroke="black" points="1565.38,-122 1426.62,-122 1426.62,-86 1565.38,-86 1565.38,-122"/>
<text text-anchor="middle" x="1496" y="-99.8" font-family="Times,serif" font-size="14.00">ResetLinkComponent</text>
</g>
<!-- ResetLinkComponent&#45;&gt;AppModule -->
<g id="edge14" class="edge">
<title>ResetLinkComponent&#45;&gt;AppModule</title>
<path fill="none" stroke="black" d="M1496,-122.28C1496,-137.95 1496,-158 1496,-158 1496,-158 1840,-158 1840,-158"/>
<polygon fill="black" stroke="black" points="1840,-161.5 1850,-158 1840,-154.5 1840,-161.5"/>
</g>
<!-- ShareProposalComponent -->
<g id="node15" class="node">
<title>ShareProposalComponent</title>
<polygon fill="#ffffb3" stroke="black" points="1408.2,-122 1245.8,-122 1245.8,-86 1408.2,-86 1408.2,-122"/>
<text text-anchor="middle" x="1327" y="-99.8" font-family="Times,serif" font-size="14.00">ShareProposalComponent</text>
</g>
<!-- ShareProposalComponent&#45;&gt;AppModule -->
<g id="edge15" class="edge">
<title>ShareProposalComponent&#45;&gt;AppModule</title>
<path fill="none" stroke="black" d="M1327,-122.04C1327,-138.73 1327,-161 1327,-161 1327,-161 1839.99,-161 1839.99,-161"/>
<polygon fill="black" stroke="black" points="1839.99,-164.5 1849.99,-161 1839.99,-157.5 1839.99,-164.5"/>
</g>
<!-- TeamComponent -->
<g id="node16" class="node">
<title>TeamComponent</title>
<polygon fill="#ffffb3" stroke="black" points="1227.7,-122 1114.3,-122 1114.3,-86 1227.7,-86 1227.7,-122"/>
<text text-anchor="middle" x="1171" y="-99.8" font-family="Times,serif" font-size="14.00">TeamComponent</text>
</g>
<!-- TeamComponent&#45;&gt;AppModule -->
<g id="edge16" class="edge">
<title>TeamComponent&#45;&gt;AppModule</title>
<path fill="none" stroke="black" d="M1171,-122.3C1171,-140.27 1171,-165 1171,-165 1171,-165 1840.12,-165 1840.12,-165"/>
<polygon fill="black" stroke="black" points="1840.12,-168.5 1850.12,-165 1840.12,-161.5 1840.12,-168.5"/>
</g>
<!-- AppComponent  -->
<g id="node19" class="node">
<title>AppComponent </title>
<polygon fill="#80b1d3" stroke="black" points="1946.44,-252 1837.56,-252 1837.56,-216 1946.44,-216 1946.44,-252"/>
<text text-anchor="middle" x="1892" y="-229.8" font-family="Times,serif" font-size="14.00">AppComponent </text>
</g>
<!-- AppModule&#45;&gt;AppComponent  -->
<g id="edge18" class="edge">
<title>AppModule&#45;&gt;AppComponent </title>
<path fill="none" stroke="black" stroke-dasharray="1,5" d="M1892,-187.11C1892,-187.11 1892,-205.99 1892,-205.99"/>
<polygon fill="black" stroke="black" points="1888.5,-205.99 1892,-215.99 1895.5,-205.99 1888.5,-205.99"/>
</g>
<!-- AppRoutingModule -->
<g id="node18" class="node">
<title>AppRoutingModule</title>
<polygon fill="#8dd3c7" stroke="black" points="1090.27,-122 1087.27,-126 1066.27,-126 1063.27,-122 961.73,-122 961.73,-86 1090.27,-86 1090.27,-122"/>
<text text-anchor="middle" x="1026" y="-99.8" font-family="Times,serif" font-size="14.00">AppRoutingModule</text>
</g>
<!-- AppRoutingModule&#45;&gt;AppModule -->
<g id="edge17" class="edge">
<title>AppRoutingModule&#45;&gt;AppModule</title>
<path fill="none" stroke="black" d="M1026,-122.17C1026,-141.09 1026,-168 1026,-168 1026,-168 1840.23,-168 1840.23,-168"/>
<polygon fill="black" stroke="black" points="1840.23,-171.5 1850.23,-168 1840.23,-164.5 1840.23,-171.5"/>
</g>
<!-- GetProposalsService -->
<g id="node20" class="node">
<title>GetProposalsService</title>
<ellipse fill="#fdb462" stroke="black" cx="847" cy="-104" rx="91.47" ry="18"/>
<text text-anchor="middle" x="847" y="-99.8" font-family="Times,serif" font-size="14.00">GetProposalsService</text>
</g>
<!-- GetProposalsService&#45;&gt;AppModule -->
<g id="edge19" class="edge">
<title>GetProposalsService&#45;&gt;AppModule</title>
<path fill="none" stroke="black" d="M847,-122.31C847,-142.15 847,-171 847,-171 847,-171 1840.07,-171 1840.07,-171"/>
<polygon fill="black" stroke="black" points="1840.07,-174.5 1850.07,-171 1840.07,-167.5 1840.07,-174.5"/>
</g>
<!-- GetTeamService -->
<g id="node21" class="node">
<title>GetTeamService</title>
<ellipse fill="#fdb462" stroke="black" cx="662" cy="-104" rx="75.84" ry="18"/>
<text text-anchor="middle" x="662" y="-99.8" font-family="Times,serif" font-size="14.00">GetTeamService</text>
</g>
<!-- GetTeamService&#45;&gt;AppModule -->
<g id="edge20" class="edge">
<title>GetTeamService&#45;&gt;AppModule</title>
<path fill="none" stroke="black" d="M662,-122.03C662,-142.77 662,-174 662,-174 662,-174 1840.02,-174 1840.02,-174"/>
<polygon fill="black" stroke="black" points="1840.02,-177.5 1850.02,-174 1840.02,-170.5 1840.02,-177.5"/>
</g>
<!-- PostProposalService -->
<g id="node22" class="node">
<title>PostProposalService</title>
<ellipse fill="#fdb462" stroke="black" cx="478" cy="-104" rx="90.34" ry="18"/>
<text text-anchor="middle" x="478" y="-99.8" font-family="Times,serif" font-size="14.00">PostProposalService</text>
</g>
<!-- PostProposalService&#45;&gt;AppModule -->
<g id="edge21" class="edge">
<title>PostProposalService&#45;&gt;AppModule</title>
<path fill="none" stroke="black" d="M478,-122.29C478,-144.21 478,-178 478,-178 478,-178 1840.07,-178 1840.07,-178"/>
<polygon fill="black" stroke="black" points="1840.07,-181.5 1850.07,-178 1840.07,-174.5 1840.07,-181.5"/>
</g>
<!-- ProposalService -->
<g id="node23" class="node">
<title>ProposalService</title>
<ellipse fill="#fdb462" stroke="black" cx="296" cy="-104" rx="73.57" ry="18"/>
<text text-anchor="middle" x="296" y="-99.8" font-family="Times,serif" font-size="14.00">ProposalService</text>
</g>
<!-- ProposalService&#45;&gt;AppModule -->
<g id="edge22" class="edge">
<title>ProposalService&#45;&gt;AppModule</title>
<path fill="none" stroke="black" d="M296,-122.25C296,-145.02 296,-181 296,-181 296,-181 1840.13,-181 1840.13,-181"/>
<polygon fill="black" stroke="black" points="1840.13,-184.5 1850.13,-181 1840.13,-177.5 1840.13,-184.5"/>
</g>
<!-- UserRegisterService -->
<g id="node24" class="node">
<title>UserRegisterService</title>
<ellipse fill="#fdb462" stroke="black" cx="114" cy="-104" rx="90.3" ry="18"/>
<text text-anchor="middle" x="114" y="-99.8" font-family="Times,serif" font-size="14.00">UserRegisterService</text>
</g>
<!-- UserRegisterService&#45;&gt;AppModule -->
<g id="edge23" class="edge">
<title>UserRegisterService&#45;&gt;AppModule</title>
<path fill="none" stroke="black" d="M114,-122.15C114,-145.76 114,-184 114,-184 114,-184 1840.24,-184 1840.24,-184"/>
<polygon fill="black" stroke="black" points="1840.24,-187.5 1850.24,-184 1840.24,-180.5 1840.24,-187.5"/>
</g>
</g>
</svg>
