<?xml version="1.0" encoding="UTF-8" standalone="no"?>
<!DOCTYPE svg PUBLIC "-//W3C//DTD SVG 1.1//EN"
 "http://www.w3.org/Graphics/SVG/1.1/DTD/svg11.dtd">
<!-- Generated by graphviz version 2.44.1 (20200629.0846)
 -->
<!-- Title: dependencies Pages: 1 -->
<svg width="4242pt" height="284pt"
 viewBox="0.00 0.00 4242.00 284.00" xmlns="http://www.w3.org/2000/svg" xmlns:xlink="http://www.w3.org/1999/xlink">
<g id="graph0" class="graph" transform="scale(1 1) rotate(0) translate(4 280)">
<title>dependencies</title>
<polygon fill="white" stroke="transparent" points="-4,4 -4,-280 4238,-280 4238,4 -4,4"/>
<text text-anchor="start" x="2096.01" y="-42.4" font-family="sans-serif" font-weight="bold" font-size="14.00">Legend</text>
<polygon fill="#ffffb3" stroke="transparent" points="1883,-10 1883,-30 1903,-30 1903,-10 1883,-10"/>
<text text-anchor="start" x="1906.63" y="-15.4" font-family="sans-serif" font-size="14.00"> &#160;Declarations</text>
<polygon fill="#8dd3c7" stroke="transparent" points="1996,-10 1996,-30 2016,-30 2016,-10 1996,-10"/>
<text text-anchor="start" x="2019.73" y="-15.4" font-family="sans-serif" font-size="14.00"> &#160;Module</text>
<polygon fill="#80b1d3" stroke="transparent" points="2082,-10 2082,-30 2102,-30 2102,-10 2082,-10"/>
<text text-anchor="start" x="2105.78" y="-15.4" font-family="sans-serif" font-size="14.00"> &#160;Bootstrap</text>
<polygon fill="#fdb462" stroke="transparent" points="2179,-10 2179,-30 2199,-30 2199,-10 2179,-10"/>
<text text-anchor="start" x="2202.67" y="-15.4" font-family="sans-serif" font-size="14.00"> &#160;Providers</text>
<polygon fill="#fb8072" stroke="transparent" points="2275,-10 2275,-30 2295,-30 2295,-10 2275,-10"/>
<text text-anchor="start" x="2298.73" y="-15.4" font-family="sans-serif" font-size="14.00"> &#160;Exports</text>
<g id="clust1" class="cluster">
<title>cluster_AppModule</title>
<polygon fill="none" stroke="black" stroke-dasharray="1,5" points="8,-70 8,-268 4226,-268 4226,-70 8,-70"/>
</g>
<g id="clust19" class="cluster">
<title>cluster_AppModule_imports</title>
<polygon fill="none" stroke="black" points="4074,-78 4074,-130 4218,-130 4218,-78 4074,-78"/>
</g>
<g id="clust21" class="cluster">
<title>cluster_AppModule_bootstrap</title>
<polygon fill="none" stroke="black" points="1861,-208 1861,-260 1985,-260 1985,-208 1861,-208"/>
</g>
<g id="clust22" class="cluster">
<title>cluster_AppModule_providers</title>
<polygon fill="none" stroke="black" points="2475,-78 2475,-130 4066,-130 4066,-78 2475,-78"/>
</g>
<g id="clust2" class="cluster">
<title>cluster_AppModule_declarations</title>
<polygon fill="none" stroke="black" points="16,-78 16,-130 2467,-130 2467,-78 16,-78"/>
</g>
<!-- ApiResponseComponent -->
<g id="node1" class="node">
<title>ApiResponseComponent</title>
<polygon fill="#ffffb3" stroke="black" points="2458.98,-122 2303.02,-122 2303.02,-86 2458.98,-86 2458.98,-122"/>
<text text-anchor="middle" x="2381" y="-99.8" font-family="Times,serif" font-size="14.00">ApiResponseComponent</text>
</g>
<!-- AppModule -->
<g id="node17" class="node">
<title>AppModule</title>
<polygon fill="#8dd3c7" stroke="black" points="1964.66,-187 1961.66,-191 1940.66,-191 1937.66,-187 1881.34,-187 1881.34,-151 1964.66,-151 1964.66,-187"/>
<text text-anchor="middle" x="1923" y="-164.8" font-family="Times,serif" font-size="14.00">AppModule</text>
</g>
<!-- ApiResponseComponent&#45;&gt;AppModule -->
<g id="edge1" class="edge">
<title>ApiResponseComponent&#45;&gt;AppModule</title>
<path fill="none" stroke="black" d="M2381,-122.03C2381,-138.4 2381,-160 2381,-160 2381,-160 1974.86,-160 1974.86,-160"/>
<polygon fill="black" stroke="black" points="1974.86,-156.5 1964.86,-160 1974.86,-163.5 1974.86,-156.5"/>
</g>
<!-- AppComponent -->
<g id="node2" class="node">
<title>AppComponent</title>
<polygon fill="#ffffb3" stroke="black" points="2284.94,-122 2179.06,-122 2179.06,-86 2284.94,-86 2284.94,-122"/>
<text text-anchor="middle" x="2232" y="-99.8" font-family="Times,serif" font-size="14.00">AppComponent</text>
</g>
<!-- AppComponent&#45;&gt;AppModule -->
<g id="edge2" class="edge">
<title>AppComponent&#45;&gt;AppModule</title>
<path fill="none" stroke="black" d="M2232,-122.24C2232,-137.57 2232,-157 2232,-157 2232,-157 1974.67,-157 1974.67,-157"/>
<polygon fill="black" stroke="black" points="1974.67,-153.5 1964.67,-157 1974.67,-160.5 1974.67,-153.5"/>
</g>
<!-- CommentComponent -->
<g id="node3" class="node">
<title>CommentComponent</title>
<polygon fill="#ffffb3" stroke="black" points="2161.06,-122 2024.94,-122 2024.94,-86 2161.06,-86 2161.06,-122"/>
<text text-anchor="middle" x="2093" y="-99.8" font-family="Times,serif" font-size="14.00">CommentComponent</text>
</g>
<!-- CommentComponent&#45;&gt;AppModule -->
<g id="edge3" class="edge">
<title>CommentComponent&#45;&gt;AppModule</title>
<path fill="none" stroke="black" d="M2093,-122.05C2093,-136.37 2093,-154 2093,-154 2093,-154 1975.02,-154 1975.02,-154"/>
<polygon fill="black" stroke="black" points="1975.02,-150.5 1965.02,-154 1975.02,-157.5 1975.02,-150.5"/>
</g>
<!-- CreateProposalComponent -->
<g id="node4" class="node">
<title>CreateProposalComponent</title>
<polygon fill="#ffffb3" stroke="black" points="2006.36,-122 1839.64,-122 1839.64,-86 2006.36,-86 2006.36,-122"/>
<text text-anchor="middle" x="1923" y="-99.8" font-family="Times,serif" font-size="14.00">CreateProposalComponent</text>
</g>
<!-- CreateProposalComponent&#45;&gt;AppModule -->
<g id="edge4" class="edge">
<title>CreateProposalComponent&#45;&gt;AppModule</title>
<path fill="none" stroke="black" d="M1923,-122.11C1923,-122.11 1923,-140.99 1923,-140.99"/>
<polygon fill="black" stroke="black" points="1919.5,-140.99 1923,-150.99 1926.5,-140.99 1919.5,-140.99"/>
</g>
<!-- ErrorComponent -->
<g id="node5" class="node">
<title>ErrorComponent</title>
<polygon fill="#ffffb3" stroke="black" points="1821.37,-122 1710.63,-122 1710.63,-86 1821.37,-86 1821.37,-122"/>
<text text-anchor="middle" x="1766" y="-99.8" font-family="Times,serif" font-size="14.00">ErrorComponent</text>
</g>
<!-- ErrorComponent&#45;&gt;AppModule -->
<g id="edge5" class="edge">
<title>ErrorComponent&#45;&gt;AppModule</title>
<path fill="none" stroke="black" d="M1766,-122.05C1766,-136.37 1766,-154 1766,-154 1766,-154 1871.34,-154 1871.34,-154"/>
<polygon fill="black" stroke="black" points="1871.34,-157.5 1881.34,-154 1871.34,-150.5 1871.34,-157.5"/>
</g>
<!-- FeedComponent -->
<g id="node6" class="node">
<title>FeedComponent</title>
<polygon fill="#ffffb3" stroke="black" points="1692.05,-122 1583.95,-122 1583.95,-86 1692.05,-86 1692.05,-122"/>
<text text-anchor="middle" x="1638" y="-99.8" font-family="Times,serif" font-size="14.00">FeedComponent</text>
</g>
<!-- FeedComponent&#45;&gt;AppModule -->
<g id="edge6" class="edge">
<title>FeedComponent&#45;&gt;AppModule</title>
<path fill="none" stroke="black" d="M1638,-122.24C1638,-137.57 1638,-157 1638,-157 1638,-157 1871.25,-157 1871.25,-157"/>
<polygon fill="black" stroke="black" points="1871.25,-160.5 1881.25,-157 1871.25,-153.5 1871.25,-160.5"/>
</g>
<!-- FilterComponent -->
<g id="node7" class="node">
<title>FilterComponent</title>
<polygon fill="#ffffb3" stroke="black" points="1565.66,-122 1454.34,-122 1454.34,-86 1565.66,-86 1565.66,-122"/>
<text text-anchor="middle" x="1510" y="-99.8" font-family="Times,serif" font-size="14.00">FilterComponent</text>
</g>
<!-- FilterComponent&#45;&gt;AppModule -->
<g id="edge7" class="edge">
<title>FilterComponent&#45;&gt;AppModule</title>
<path fill="none" stroke="black" d="M1510,-122.03C1510,-138.4 1510,-160 1510,-160 1510,-160 1871.13,-160 1871.13,-160"/>
<polygon fill="black" stroke="black" points="1871.13,-163.5 1881.13,-160 1871.13,-156.5 1871.13,-163.5"/>
</g>
<!-- ForgetPasswordComponent -->
<g id="node8" class="node">
<title>ForgetPasswordComponent</title>
<polygon fill="#ffffb3" stroke="black" points="1435.54,-122 1264.46,-122 1264.46,-86 1435.54,-86 1435.54,-122"/>
<text text-anchor="middle" x="1350" y="-99.8" font-family="Times,serif" font-size="14.00">ForgetPasswordComponent</text>
</g>
<!-- ForgetPasswordComponent&#45;&gt;AppModule -->
<g id="edge8" class="edge">
<title>ForgetPasswordComponent&#45;&gt;AppModule</title>
<path fill="none" stroke="black" d="M1350,-122.02C1350,-139.37 1350,-163 1350,-163 1350,-163 1871.33,-163 1871.33,-163"/>
<polygon fill="black" stroke="black" points="1871.33,-166.5 1881.33,-163 1871.33,-159.5 1871.33,-166.5"/>
</g>
<!-- HomeComponent -->
<g id="node9" class="node">
<title>HomeComponent</title>
<polygon fill="#ffffb3" stroke="black" points="1245.55,-122 1130.45,-122 1130.45,-86 1245.55,-86 1245.55,-122"/>
<text text-anchor="middle" x="1188" y="-99.8" font-family="Times,serif" font-size="14.00">HomeComponent</text>
</g>
<!-- HomeComponent&#45;&gt;AppModule -->
<g id="edge9" class="edge">
<title>HomeComponent&#45;&gt;AppModule</title>
<path fill="none" stroke="black" d="M1188,-122.3C1188,-140.27 1188,-165 1188,-165 1188,-165 1871.11,-165 1871.11,-165"/>
<polygon fill="black" stroke="black" points="1871.11,-168.5 1881.11,-165 1871.11,-161.5 1871.11,-168.5"/>
</g>
<!-- LandingPageComponent -->
<g id="node10" class="node">
<title>LandingPageComponent</title>
<polygon fill="#ffffb3" stroke="black" points="1112.7,-122 957.3,-122 957.3,-86 1112.7,-86 1112.7,-122"/>
<text text-anchor="middle" x="1035" y="-99.8" font-family="Times,serif" font-size="14.00">LandingPageComponent</text>
</g>
<!-- LandingPageComponent&#45;&gt;AppModule -->
<g id="edge10" class="edge">
<title>LandingPageComponent&#45;&gt;AppModule</title>
<path fill="none" stroke="black" d="M1035,-122.17C1035,-141.09 1035,-168 1035,-168 1035,-168 1871.06,-168 1871.06,-168"/>
<polygon fill="black" stroke="black" points="1871.06,-171.5 1881.06,-168 1871.06,-164.5 1871.06,-171.5"/>
</g>
<!-- LoginComponent -->
<g id="node11" class="node">
<title>LoginComponent</title>
<polygon fill="#ffffb3" stroke="black" points="939.28,-122 824.72,-122 824.72,-86 939.28,-86 939.28,-122"/>
<text text-anchor="middle" x="882" y="-99.8" font-family="Times,serif" font-size="14.00">LoginComponent</text>
</g>
<!-- LoginComponent&#45;&gt;AppModule -->
<g id="edge11" class="edge">
<title>LoginComponent&#45;&gt;AppModule</title>
<path fill="none" stroke="black" d="M882,-122.31C882,-142.15 882,-171 882,-171 882,-171 1871.23,-171 1871.23,-171"/>
<polygon fill="black" stroke="black" points="1871.23,-174.5 1881.23,-171 1871.23,-167.5 1871.23,-174.5"/>
</g>
<!-- PasswordSpecsComponent -->
<g id="node12" class="node">
<title>PasswordSpecsComponent</title>
<polygon fill="#ffffb3" stroke="black" points="806.64,-122 639.36,-122 639.36,-86 806.64,-86 806.64,-122"/>
<text text-anchor="middle" x="723" y="-99.8" font-family="Times,serif" font-size="14.00">PasswordSpecsComponent</text>
</g>
<!-- PasswordSpecsComponent&#45;&gt;AppModule -->
<g id="edge12" class="edge">
<title>PasswordSpecsComponent&#45;&gt;AppModule</title>
<path fill="none" stroke="black" d="M723,-122.03C723,-142.77 723,-174 723,-174 723,-174 1870.99,-174 1870.99,-174"/>
<polygon fill="black" stroke="black" points="1871,-177.5 1880.99,-174 1870.99,-170.5 1871,-177.5"/>
</g>
<!-- RegisterComponent -->
<g id="node13" class="node">
<title>RegisterComponent</title>
<polygon fill="#ffffb3" stroke="black" points="620.98,-122 493.02,-122 493.02,-86 620.98,-86 620.98,-122"/>
<text text-anchor="middle" x="557" y="-99.8" font-family="Times,serif" font-size="14.00">RegisterComponent</text>
</g>
<!-- RegisterComponent&#45;&gt;AppModule -->
<g id="edge13" class="edge">
<title>RegisterComponent&#45;&gt;AppModule</title>
<path fill="none" stroke="black" d="M557,-122.17C557,-143.5 557,-176 557,-176 557,-176 1871,-176 1871,-176"/>
<polygon fill="black" stroke="black" points="1871,-179.5 1881,-176 1871,-172.5 1871,-179.5"/>
</g>
<!-- ResetLinkComponent -->
<g id="node14" class="node">
<title>ResetLinkComponent</title>
<polygon fill="#ffffb3" stroke="black" points="475.38,-122 336.62,-122 336.62,-86 475.38,-86 475.38,-122"/>
<text text-anchor="middle" x="406" y="-99.8" font-family="Times,serif" font-size="14.00">ResetLinkComponent</text>
</g>
<!-- ResetLinkComponent&#45;&gt;AppModule -->
<g id="edge14" class="edge">
<title>ResetLinkComponent&#45;&gt;AppModule</title>
<path fill="none" stroke="black" d="M406,-122.16C406,-144.35 406,-179 406,-179 406,-179 1871.24,-179 1871.24,-179"/>
<polygon fill="black" stroke="black" points="1871.24,-182.5 1881.24,-179 1871.24,-175.5 1871.24,-182.5"/>
</g>
<!-- ShareProposalComponent -->
<g id="node15" class="node">
<title>ShareProposalComponent</title>
<polygon fill="#ffffb3" stroke="black" points="318.2,-122 155.8,-122 155.8,-86 318.2,-86 318.2,-122"/>
<text text-anchor="middle" x="237" y="-99.8" font-family="Times,serif" font-size="14.00">ShareProposalComponent</text>
</g>
<!-- ShareProposalComponent&#45;&gt;AppModule -->
<g id="edge15" class="edge">
<title>ShareProposalComponent&#45;&gt;AppModule</title>
<path fill="none" stroke="black" d="M237,-122.09C237,-145.13 237,-182 237,-182 237,-182 1871.32,-182 1871.32,-182"/>
<polygon fill="black" stroke="black" points="1871.32,-185.5 1881.32,-182 1871.32,-178.5 1871.32,-185.5"/>
</g>
<!-- TeamComponent -->
<g id="node16" class="node">
<title>TeamComponent</title>
<polygon fill="#ffffb3" stroke="black" points="137.7,-122 24.3,-122 24.3,-86 137.7,-86 137.7,-122"/>
<text text-anchor="middle" x="81" y="-99.8" font-family="Times,serif" font-size="14.00">TeamComponent</text>
</g>
<!-- TeamComponent&#45;&gt;AppModule -->
<g id="edge16" class="edge">
<title>TeamComponent&#45;&gt;AppModule</title>
<path fill="none" stroke="black" d="M81,-122.38C81,-146.28 81,-185 81,-185 81,-185 1871.07,-185 1871.07,-185"/>
<polygon fill="black" stroke="black" points="1871.07,-188.5 1881.07,-185 1871.07,-181.5 1871.07,-188.5"/>
</g>
<!-- AppComponent  -->
<g id="node19" class="node">
<title>AppComponent </title>
<polygon fill="#80b1d3" stroke="black" points="1977.44,-252 1868.56,-252 1868.56,-216 1977.44,-216 1977.44,-252"/>
<text text-anchor="middle" x="1923" y="-229.8" font-family="Times,serif" font-size="14.00">AppComponent </text>
</g>
<!-- AppModule&#45;&gt;AppComponent  -->
<g id="edge18" class="edge">
<title>AppModule&#45;&gt;AppComponent </title>
<path fill="none" stroke="black" stroke-dasharray="1,5" d="M1923,-187.11C1923,-187.11 1923,-205.99 1923,-205.99"/>
<polygon fill="black" stroke="black" points="1919.5,-205.99 1923,-215.99 1926.5,-205.99 1919.5,-205.99"/>
</g>
<!-- AppRoutingModule -->
<g id="node18" class="node">
<title>AppRoutingModule</title>
<polygon fill="#8dd3c7" stroke="black" points="4210.27,-122 4207.27,-126 4186.27,-126 4183.27,-122 4081.73,-122 4081.73,-86 4210.27,-86 4210.27,-122"/>
<text text-anchor="middle" x="4146" y="-99.8" font-family="Times,serif" font-size="14.00">AppRoutingModule</text>
</g>
<!-- AppRoutingModule&#45;&gt;AppModule -->
<g id="edge17" class="edge">
<title>AppRoutingModule&#45;&gt;AppModule</title>
<path fill="none" stroke="black" d="M4146,-122.38C4146,-146.28 4146,-185 4146,-185 4146,-185 1974.93,-185 1974.93,-185"/>
<polygon fill="black" stroke="black" points="1974.93,-181.5 1964.93,-185 1974.93,-188.5 1974.93,-181.5"/>
</g>
<!-- GetProposalsService -->
<g id="node20" class="node">
<title>GetProposalsService</title>
<ellipse fill="#fdb462" stroke="black" cx="3967" cy="-104" rx="91.47" ry="18"/>
<text text-anchor="middle" x="3967" y="-99.8" font-family="Times,serif" font-size="14.00">GetProposalsService</text>
</g>
<!-- GetProposalsService&#45;&gt;AppModule -->
<g id="edge19" class="edge">
<title>GetProposalsService&#45;&gt;AppModule</title>
<path fill="none" stroke="black" d="M3967,-122.09C3967,-145.13 3967,-182 3967,-182 3967,-182 1974.76,-182 1974.76,-182"/>
<polygon fill="black" stroke="black" points="1974.76,-178.5 1964.76,-182 1974.76,-185.5 1974.76,-178.5"/>
</g>
<!-- PostProposalService -->
<g id="node21" class="node">
<title>PostProposalService</title>
<ellipse fill="#fdb462" stroke="black" cx="3767" cy="-104" rx="90.34" ry="18"/>
<text text-anchor="middle" x="3767" y="-99.8" font-family="Times,serif" font-size="14.00">PostProposalService</text>
</g>
<!-- PostProposalService&#45;&gt;AppModule -->
<g id="edge20" class="edge">
<title>PostProposalService&#45;&gt;AppModule</title>
<path fill="none" stroke="black" d="M3767,-122.16C3767,-144.35 3767,-179 3767,-179 3767,-179 1974.98,-179 1974.98,-179"/>
<polygon fill="black" stroke="black" points="1974.98,-175.5 1964.98,-179 1974.98,-182.5 1974.98,-175.5"/>
</g>
<!-- ProposalService -->
<g id="node22" class="node">
<title>ProposalService</title>
<ellipse fill="#fdb462" stroke="black" cx="3585" cy="-104" rx="73.57" ry="18"/>
<text text-anchor="middle" x="3585" y="-99.8" font-family="Times,serif" font-size="14.00">ProposalService</text>
</g>
<!-- ProposalService&#45;&gt;AppModule -->
<g id="edge21" class="edge">
<title>ProposalService&#45;&gt;AppModule</title>
<path fill="none" stroke="black" d="M3585,-122.17C3585,-143.5 3585,-176 3585,-176 3585,-176 1974.91,-176 1974.91,-176"/>
<polygon fill="black" stroke="black" points="1974.91,-172.5 1964.91,-176 1974.91,-179.5 1974.91,-172.5"/>
</g>
<!-- ResetPasswordService -->
<g id="node23" class="node">
<title>ResetPasswordService</title>
<ellipse fill="#fdb462" stroke="black" cx="3395" cy="-104" rx="98.41" ry="18"/>
<text text-anchor="middle" x="3395" y="-99.8" font-family="Times,serif" font-size="14.00">ResetPasswordService</text>
</g>
<!-- ResetPasswordService&#45;&gt;AppModule -->
<g id="edge22" class="edge">
<title>ResetPasswordService&#45;&gt;AppModule</title>
<path fill="none" stroke="black" d="M3395,-122.03C3395,-142.77 3395,-174 3395,-174 3395,-174 1974.68,-174 1974.68,-174"/>
<polygon fill="black" stroke="black" points="1974.68,-170.5 1964.68,-174 1974.68,-177.5 1974.68,-170.5"/>
</g>
<!-- SocialMediaAuthService -->
<g id="node24" class="node">
<title>SocialMediaAuthService</title>
<ellipse fill="#fdb462" stroke="black" cx="3170" cy="-104" rx="108.22" ry="18"/>
<text text-anchor="middle" x="3170" y="-99.8" font-family="Times,serif" font-size="14.00">SocialMediaAuthService</text>
</g>
<!-- SocialMediaAuthService&#45;&gt;AppModule -->
<g id="edge23" class="edge">
<title>SocialMediaAuthService&#45;&gt;AppModule</title>
<path fill="none" stroke="black" d="M3170,-122.31C3170,-142.15 3170,-171 3170,-171 3170,-171 1974.85,-171 1974.85,-171"/>
<polygon fill="black" stroke="black" points="1974.85,-167.5 1964.85,-171 1974.85,-174.5 1974.85,-167.5"/>
</g>
<!-- TransferDataService -->
<g id="node25" class="node">
<title>TransferDataService</title>
<ellipse fill="#fdb462" stroke="black" cx="2953" cy="-104" rx="90.84" ry="18"/>
<text text-anchor="middle" x="2953" y="-99.8" font-family="Times,serif" font-size="14.00">TransferDataService</text>
</g>
<!-- TransferDataService&#45;&gt;AppModule -->
<g id="edge24" class="edge">
<title>TransferDataService&#45;&gt;AppModule</title>
<path fill="none" stroke="black" d="M2953,-122.17C2953,-141.09 2953,-168 2953,-168 2953,-168 1974.97,-168 1974.97,-168"/>
<polygon fill="black" stroke="black" points="1974.97,-164.5 1964.97,-168 1974.97,-171.5 1974.97,-164.5"/>
</g>
<!-- UserLoginService -->
<g id="node26" class="node">
<title>UserLoginService</title>
<ellipse fill="#fdb462" stroke="black" cx="2763" cy="-104" rx="81.08" ry="18"/>
<text text-anchor="middle" x="2763" y="-99.8" font-family="Times,serif" font-size="14.00">UserLoginService</text>
</g>
<!-- UserLoginService&#45;&gt;AppModule -->
<g id="edge25" class="edge">
<title>UserLoginService&#45;&gt;AppModule</title>
<path fill="none" stroke="black" d="M2763,-122.3C2763,-140.27 2763,-165 2763,-165 2763,-165 1974.94,-165 1974.94,-165"/>
<polygon fill="black" stroke="black" points="1974.94,-161.5 1964.94,-165 1974.94,-168.5 1974.94,-161.5"/>
</g>
<!-- UserRegisterService -->
<g id="node27" class="node">
<title>UserRegisterService</title>
<ellipse fill="#fdb462" stroke="black" cx="2573" cy="-104" rx="90.3" ry="18"/>
<text text-anchor="middle" x="2573" y="-99.8" font-family="Times,serif" font-size="14.00">UserRegisterService</text>
</g>
<!-- UserRegisterService&#45;&gt;AppModule -->
<g id="edge26" class="edge">
<title>UserRegisterService&#45;&gt;AppModule</title>
<path fill="none" stroke="black" d="M2573,-122.02C2573,-139.37 2573,-163 2573,-163 2573,-163 1975.15,-163 1975.15,-163"/>
<polygon fill="black" stroke="black" points="1975.15,-159.5 1965.15,-163 1975.15,-166.5 1975.15,-159.5"/>
</g>
</g>
</svg>
