<?xml version="1.0" encoding="UTF-8" standalone="no"?>
<!DOCTYPE svg PUBLIC "-//W3C//DTD SVG 1.1//EN"
 "http://www.w3.org/Graphics/SVG/1.1/DTD/svg11.dtd">
<!-- Generated by graphviz version 2.44.1 (20200629.0846)
 -->
<!-- Title: dependencies Pages: 1 -->
<svg width="3412pt" height="284pt"
 viewBox="0.00 0.00 3412.00 284.00" xmlns="http://www.w3.org/2000/svg" xmlns:xlink="http://www.w3.org/1999/xlink">
<g id="graph0" class="graph" transform="scale(1 1) rotate(0) translate(4 280)">
<title>dependencies</title>
<polygon fill="white" stroke="transparent" points="-4,4 -4,-280 3408,-280 3408,4 -4,4"/>
<text text-anchor="start" x="1681.01" y="-42.4" font-family="sans-serif" font-weight="bold" font-size="14.00">Legend</text>
<polygon fill="#ffffb3" stroke="transparent" points="1468,-10 1468,-30 1488,-30 1488,-10 1468,-10"/>
<text text-anchor="start" x="1491.63" y="-15.4" font-family="sans-serif" font-size="14.00"> &#160;Declarations</text>
<polygon fill="#8dd3c7" stroke="transparent" points="1581,-10 1581,-30 1601,-30 1601,-10 1581,-10"/>
<text text-anchor="start" x="1604.73" y="-15.4" font-family="sans-serif" font-size="14.00"> &#160;Module</text>
<polygon fill="#80b1d3" stroke="transparent" points="1667,-10 1667,-30 1687,-30 1687,-10 1667,-10"/>
<text text-anchor="start" x="1690.78" y="-15.4" font-family="sans-serif" font-size="14.00"> &#160;Bootstrap</text>
<polygon fill="#fdb462" stroke="transparent" points="1764,-10 1764,-30 1784,-30 1784,-10 1764,-10"/>
<text text-anchor="start" x="1787.67" y="-15.4" font-family="sans-serif" font-size="14.00"> &#160;Providers</text>
<polygon fill="#fb8072" stroke="transparent" points="1860,-10 1860,-30 1880,-30 1880,-10 1860,-10"/>
<text text-anchor="start" x="1883.73" y="-15.4" font-family="sans-serif" font-size="14.00"> &#160;Exports</text>
<g id="clust1" class="cluster">
<title>cluster_AppModule</title>
<polygon fill="none" stroke="black" stroke-dasharray="1,5" points="8,-70 8,-268 3396,-268 3396,-70 8,-70"/>
</g>
<g id="clust19" class="cluster">
<title>cluster_AppModule_imports</title>
<polygon fill="none" stroke="black" points="3244,-78 3244,-130 3388,-130 3388,-78 3244,-78"/>
</g>
<g id="clust21" class="cluster">
<title>cluster_AppModule_bootstrap</title>
<polygon fill="none" stroke="black" points="1576,-208 1576,-260 1700,-260 1700,-208 1576,-208"/>
</g>
<g id="clust22" class="cluster">
<title>cluster_AppModule_providers</title>
<polygon fill="none" stroke="black" points="2475,-78 2475,-130 3236,-130 3236,-78 2475,-78"/>
</g>
<g id="clust2" class="cluster">
<title>cluster_AppModule_declarations</title>
<polygon fill="none" stroke="black" points="16,-78 16,-130 2467,-130 2467,-78 16,-78"/>
</g>
<!-- ApiResponseComponent -->
<g id="node1" class="node">
<title>ApiResponseComponent</title>
<polygon fill="#ffffb3" stroke="black" points="2458.98,-122 2303.02,-122 2303.02,-86 2458.98,-86 2458.98,-122"/>
<text text-anchor="middle" x="2381" y="-99.8" font-family="Times,serif" font-size="14.00">ApiResponseComponent</text>
</g>
<!-- AppModule -->
<g id="node17" class="node">
<title>AppModule</title>
<polygon fill="#8dd3c7" stroke="black" points="1679.66,-187 1676.66,-191 1655.66,-191 1652.66,-187 1596.34,-187 1596.34,-151 1679.66,-151 1679.66,-187"/>
<text text-anchor="middle" x="1638" y="-164.8" font-family="Times,serif" font-size="14.00">AppModule</text>
</g>
<!-- ApiResponseComponent&#45;&gt;AppModule -->
<g id="edge1" class="edge">
<title>ApiResponseComponent&#45;&gt;AppModule</title>
<path fill="none" stroke="black" d="M2381,-122.17C2381,-141.09 2381,-168 2381,-168 2381,-168 1689.81,-168 1689.81,-168"/>
<polygon fill="black" stroke="black" points="1689.81,-164.5 1679.81,-168 1689.81,-171.5 1689.81,-164.5"/>
</g>
<!-- AppComponent -->
<g id="node2" class="node">
<title>AppComponent</title>
<polygon fill="#ffffb3" stroke="black" points="2284.94,-122 2179.06,-122 2179.06,-86 2284.94,-86 2284.94,-122"/>
<text text-anchor="middle" x="2232" y="-99.8" font-family="Times,serif" font-size="14.00">AppComponent</text>
</g>
<!-- AppComponent&#45;&gt;AppModule -->
<g id="edge2" class="edge">
<title>AppComponent&#45;&gt;AppModule</title>
<path fill="none" stroke="black" d="M2232,-122.3C2232,-140.27 2232,-165 2232,-165 2232,-165 1689.77,-165 1689.77,-165"/>
<polygon fill="black" stroke="black" points="1689.77,-161.5 1679.77,-165 1689.77,-168.5 1689.77,-161.5"/>
</g>
<!-- CommentComponent -->
<g id="node3" class="node">
<title>CommentComponent</title>
<polygon fill="#ffffb3" stroke="black" points="2161.06,-122 2024.94,-122 2024.94,-86 2161.06,-86 2161.06,-122"/>
<text text-anchor="middle" x="2093" y="-99.8" font-family="Times,serif" font-size="14.00">CommentComponent</text>
</g>
<!-- CommentComponent&#45;&gt;AppModule -->
<g id="edge3" class="edge">
<title>CommentComponent&#45;&gt;AppModule</title>
<path fill="none" stroke="black" d="M2093,-122.04C2093,-138.73 2093,-161 2093,-161 2093,-161 1689.99,-161 1689.99,-161"/>
<polygon fill="black" stroke="black" points="1689.99,-157.5 1679.99,-161 1689.99,-164.5 1689.99,-157.5"/>
</g>
<!-- CreateProposalComponent -->
<g id="node4" class="node">
<title>CreateProposalComponent</title>
<polygon fill="#ffffb3" stroke="black" points="2006.36,-122 1839.64,-122 1839.64,-86 2006.36,-86 2006.36,-122"/>
<text text-anchor="middle" x="1923" y="-99.8" font-family="Times,serif" font-size="14.00">CreateProposalComponent</text>
</g>
<!-- CreateProposalComponent&#45;&gt;AppModule -->
<g id="edge4" class="edge">
<title>CreateProposalComponent&#45;&gt;AppModule</title>
<path fill="none" stroke="black" d="M1923,-122.28C1923,-137.95 1923,-158 1923,-158 1923,-158 1689.75,-158 1689.75,-158"/>
<polygon fill="black" stroke="black" points="1689.75,-154.5 1679.75,-158 1689.75,-161.5 1689.75,-154.5"/>
</g>
<!-- ErrorComponent -->
<g id="node5" class="node">
<title>ErrorComponent</title>
<polygon fill="#ffffb3" stroke="black" points="1821.37,-122 1710.63,-122 1710.63,-86 1821.37,-86 1821.37,-122"/>
<text text-anchor="middle" x="1766" y="-99.8" font-family="Times,serif" font-size="14.00">ErrorComponent</text>
</g>
<!-- ErrorComponent&#45;&gt;AppModule -->
<g id="edge5" class="edge">
<title>ErrorComponent&#45;&gt;AppModule</title>
<path fill="none" stroke="black" d="M1766,-122.12C1766,-136.78 1766,-155 1766,-155 1766,-155 1689.91,-155 1689.91,-155"/>
<polygon fill="black" stroke="black" points="1689.91,-151.5 1679.91,-155 1689.91,-158.5 1689.91,-151.5"/>
</g>
<!-- FeedComponent -->
<g id="node6" class="node">
<title>FeedComponent</title>
<polygon fill="#ffffb3" stroke="black" points="1692.05,-122 1583.95,-122 1583.95,-86 1692.05,-86 1692.05,-122"/>
<text text-anchor="middle" x="1638" y="-99.8" font-family="Times,serif" font-size="14.00">FeedComponent</text>
</g>
<!-- FeedComponent&#45;&gt;AppModule -->
<g id="edge6" class="edge">
<title>FeedComponent&#45;&gt;AppModule</title>
<path fill="none" stroke="black" d="M1638,-122.11C1638,-122.11 1638,-140.99 1638,-140.99"/>
<polygon fill="black" stroke="black" points="1634.5,-140.99 1638,-150.99 1641.5,-140.99 1634.5,-140.99"/>
</g>
<!-- FilterComponent -->
<g id="node7" class="node">
<title>FilterComponent</title>
<polygon fill="#ffffb3" stroke="black" points="1565.66,-122 1454.34,-122 1454.34,-86 1565.66,-86 1565.66,-122"/>
<text text-anchor="middle" x="1510" y="-99.8" font-family="Times,serif" font-size="14.00">FilterComponent</text>
</g>
<!-- FilterComponent&#45;&gt;AppModule -->
<g id="edge7" class="edge">
<title>FilterComponent&#45;&gt;AppModule</title>
<path fill="none" stroke="black" d="M1510,-122.12C1510,-136.78 1510,-155 1510,-155 1510,-155 1586.09,-155 1586.09,-155"/>
<polygon fill="black" stroke="black" points="1586.09,-158.5 1596.09,-155 1586.09,-151.5 1586.09,-158.5"/>
</g>
<!-- ForgetPasswordComponent -->
<g id="node8" class="node">
<title>ForgetPasswordComponent</title>
<polygon fill="#ffffb3" stroke="black" points="1435.54,-122 1264.46,-122 1264.46,-86 1435.54,-86 1435.54,-122"/>
<text text-anchor="middle" x="1350" y="-99.8" font-family="Times,serif" font-size="14.00">ForgetPasswordComponent</text>
</g>
<!-- ForgetPasswordComponent&#45;&gt;AppModule -->
<g id="edge8" class="edge">
<title>ForgetPasswordComponent&#45;&gt;AppModule</title>
<path fill="none" stroke="black" d="M1350,-122.28C1350,-137.95 1350,-158 1350,-158 1350,-158 1586.12,-158 1586.12,-158"/>
<polygon fill="black" stroke="black" points="1586.12,-161.5 1596.12,-158 1586.12,-154.5 1586.12,-161.5"/>
</g>
<!-- HomeComponent -->
<g id="node9" class="node">
<title>HomeComponent</title>
<polygon fill="#ffffb3" stroke="black" points="1245.55,-122 1130.45,-122 1130.45,-86 1245.55,-86 1245.55,-122"/>
<text text-anchor="middle" x="1188" y="-99.8" font-family="Times,serif" font-size="14.00">HomeComponent</text>
</g>
<!-- HomeComponent&#45;&gt;AppModule -->
<g id="edge9" class="edge">
<title>HomeComponent&#45;&gt;AppModule</title>
<path fill="none" stroke="black" d="M1188,-122.04C1188,-138.73 1188,-161 1188,-161 1188,-161 1586.07,-161 1586.07,-161"/>
<polygon fill="black" stroke="black" points="1586.07,-164.5 1596.07,-161 1586.07,-157.5 1586.07,-164.5"/>
</g>
<!-- LandingPageComponent -->
<g id="node10" class="node">
<title>LandingPageComponent</title>
<polygon fill="#ffffb3" stroke="black" points="1112.7,-122 957.3,-122 957.3,-86 1112.7,-86 1112.7,-122"/>
<text text-anchor="middle" x="1035" y="-99.8" font-family="Times,serif" font-size="14.00">LandingPageComponent</text>
</g>
<!-- LandingPageComponent&#45;&gt;AppModule -->
<g id="edge10" class="edge">
<title>LandingPageComponent&#45;&gt;AppModule</title>
<path fill="none" stroke="black" d="M1035,-122.3C1035,-140.27 1035,-165 1035,-165 1035,-165 1586.08,-165 1586.08,-165"/>
<polygon fill="black" stroke="black" points="1586.08,-168.5 1596.08,-165 1586.08,-161.5 1586.08,-168.5"/>
</g>
<!-- LoginComponent -->
<g id="node11" class="node">
<title>LoginComponent</title>
<polygon fill="#ffffb3" stroke="black" points="939.28,-122 824.72,-122 824.72,-86 939.28,-86 939.28,-122"/>
<text text-anchor="middle" x="882" y="-99.8" font-family="Times,serif" font-size="14.00">LoginComponent</text>
</g>
<!-- LoginComponent&#45;&gt;AppModule -->
<g id="edge11" class="edge">
<title>LoginComponent&#45;&gt;AppModule</title>
<path fill="none" stroke="black" d="M882,-122.17C882,-141.09 882,-168 882,-168 882,-168 1586.28,-168 1586.28,-168"/>
<polygon fill="black" stroke="black" points="1586.28,-171.5 1596.28,-168 1586.28,-164.5 1586.28,-171.5"/>
</g>
<!-- PasswordSpecsComponent -->
<g id="node12" class="node">
<title>PasswordSpecsComponent</title>
<polygon fill="#ffffb3" stroke="black" points="806.64,-122 639.36,-122 639.36,-86 806.64,-86 806.64,-122"/>
<text text-anchor="middle" x="723" y="-99.8" font-family="Times,serif" font-size="14.00">PasswordSpecsComponent</text>
</g>
<!-- PasswordSpecsComponent&#45;&gt;AppModule -->
<g id="edge12" class="edge">
<title>PasswordSpecsComponent&#45;&gt;AppModule</title>
<path fill="none" stroke="black" d="M723,-122.31C723,-142.15 723,-171 723,-171 723,-171 1586.31,-171 1586.31,-171"/>
<polygon fill="black" stroke="black" points="1586.31,-174.5 1596.31,-171 1586.31,-167.5 1586.31,-174.5"/>
</g>
<!-- RegisterComponent -->
<g id="node13" class="node">
<title>RegisterComponent</title>
<polygon fill="#ffffb3" stroke="black" points="620.98,-122 493.02,-122 493.02,-86 620.98,-86 620.98,-122"/>
<text text-anchor="middle" x="557" y="-99.8" font-family="Times,serif" font-size="14.00">RegisterComponent</text>
</g>
<!-- RegisterComponent&#45;&gt;AppModule -->
<g id="edge13" class="edge">
<title>RegisterComponent&#45;&gt;AppModule</title>
<path fill="none" stroke="black" d="M557,-122.03C557,-142.77 557,-174 557,-174 557,-174 1586.29,-174 1586.29,-174"/>
<polygon fill="black" stroke="black" points="1586.29,-177.5 1596.29,-174 1586.29,-170.5 1586.29,-177.5"/>
</g>
<!-- ResetLinkComponent -->
<g id="node14" class="node">
<title>ResetLinkComponent</title>
<polygon fill="#ffffb3" stroke="black" points="475.38,-122 336.62,-122 336.62,-86 475.38,-86 475.38,-122"/>
<text text-anchor="middle" x="406" y="-99.8" font-family="Times,serif" font-size="14.00">ResetLinkComponent</text>
</g>
<!-- ResetLinkComponent&#45;&gt;AppModule -->
<g id="edge14" class="edge">
<title>ResetLinkComponent&#45;&gt;AppModule</title>
<path fill="none" stroke="black" d="M406,-122.29C406,-144.21 406,-178 406,-178 406,-178 1586.3,-178 1586.3,-178"/>
<polygon fill="black" stroke="black" points="1586.3,-181.5 1596.3,-178 1586.3,-174.5 1586.3,-181.5"/>
</g>
<!-- ShareProposalComponent -->
<g id="node15" class="node">
<title>ShareProposalComponent</title>
<polygon fill="#ffffb3" stroke="black" points="318.2,-122 155.8,-122 155.8,-86 318.2,-86 318.2,-122"/>
<text text-anchor="middle" x="237" y="-99.8" font-family="Times,serif" font-size="14.00">ShareProposalComponent</text>
</g>
<!-- ShareProposalComponent&#45;&gt;AppModule -->
<g id="edge15" class="edge">
<title>ShareProposalComponent&#45;&gt;AppModule</title>
<path fill="none" stroke="black" d="M237,-122.25C237,-145.02 237,-181 237,-181 237,-181 1586.07,-181 1586.07,-181"/>
<polygon fill="black" stroke="black" points="1586.07,-184.5 1596.07,-181 1586.07,-177.5 1586.07,-184.5"/>
</g>
<!-- TeamComponent -->
<g id="node16" class="node">
<title>TeamComponent</title>
<polygon fill="#ffffb3" stroke="black" points="137.7,-122 24.3,-122 24.3,-86 137.7,-86 137.7,-122"/>
<text text-anchor="middle" x="81" y="-99.8" font-family="Times,serif" font-size="14.00">TeamComponent</text>
</g>
<!-- TeamComponent&#45;&gt;AppModule -->
<g id="edge16" class="edge">
<title>TeamComponent&#45;&gt;AppModule</title>
<path fill="none" stroke="black" d="M81,-122.15C81,-145.76 81,-184 81,-184 81,-184 1585.95,-184 1585.95,-184"/>
<polygon fill="black" stroke="black" points="1585.95,-187.5 1595.95,-184 1585.95,-180.5 1585.95,-187.5"/>
</g>
<!-- AppComponent  -->
<g id="node19" class="node">
<title>AppComponent </title>
<polygon fill="#80b1d3" stroke="black" points="1692.44,-252 1583.56,-252 1583.56,-216 1692.44,-216 1692.44,-252"/>
<text text-anchor="middle" x="1638" y="-229.8" font-family="Times,serif" font-size="14.00">AppComponent </text>
</g>
<!-- AppModule&#45;&gt;AppComponent  -->
<g id="edge18" class="edge">
<title>AppModule&#45;&gt;AppComponent </title>
<path fill="none" stroke="black" stroke-dasharray="1,5" d="M1638,-187.11C1638,-187.11 1638,-205.99 1638,-205.99"/>
<polygon fill="black" stroke="black" points="1634.5,-205.99 1638,-215.99 1641.5,-205.99 1634.5,-205.99"/>
</g>
<!-- AppRoutingModule -->
<g id="node18" class="node">
<title>AppRoutingModule</title>
<polygon fill="#8dd3c7" stroke="black" points="3380.27,-122 3377.27,-126 3356.27,-126 3353.27,-122 3251.73,-122 3251.73,-86 3380.27,-86 3380.27,-122"/>
<text text-anchor="middle" x="3316" y="-99.8" font-family="Times,serif" font-size="14.00">AppRoutingModule</text>
</g>
<!-- AppRoutingModule&#45;&gt;AppModule -->
<g id="edge17" class="edge">
<title>AppRoutingModule&#45;&gt;AppModule</title>
<path fill="none" stroke="black" d="M3316,-122.15C3316,-145.76 3316,-184 3316,-184 3316,-184 1689.9,-184 1689.9,-184"/>
<polygon fill="black" stroke="black" points="1689.9,-180.5 1679.9,-184 1689.9,-187.5 1689.9,-180.5"/>
</g>
<!-- GetProposalsService -->
<g id="node20" class="node">
<title>GetProposalsService</title>
<ellipse fill="#fdb462" stroke="black" cx="3137" cy="-104" rx="91.47" ry="18"/>
<text text-anchor="middle" x="3137" y="-99.8" font-family="Times,serif" font-size="14.00">GetProposalsService</text>
</g>
<!-- GetProposalsService&#45;&gt;AppModule -->
<g id="edge19" class="edge">
<title>GetProposalsService&#45;&gt;AppModule</title>
<path fill="none" stroke="black" d="M3137,-122.25C3137,-145.02 3137,-181 3137,-181 3137,-181 1690.05,-181 1690.05,-181"/>
<polygon fill="black" stroke="black" points="1690.05,-177.5 1680.05,-181 1690.05,-184.5 1690.05,-177.5"/>
</g>
<!-- PostProposalService -->
<g id="node21" class="node">
<title>PostProposalService</title>
<ellipse fill="#fdb462" stroke="black" cx="2937" cy="-104" rx="90.34" ry="18"/>
<text text-anchor="middle" x="2937" y="-99.8" font-family="Times,serif" font-size="14.00">PostProposalService</text>
</g>
<!-- PostProposalService&#45;&gt;AppModule -->
<g id="edge20" class="edge">
<title>PostProposalService&#45;&gt;AppModule</title>
<path fill="none" stroke="black" d="M2937,-122.29C2937,-144.21 2937,-178 2937,-178 2937,-178 1689.75,-178 1689.75,-178"/>
<polygon fill="black" stroke="black" points="1689.75,-174.5 1679.75,-178 1689.75,-181.5 1689.75,-174.5"/>
</g>
<!-- ProposalService -->
<g id="node22" class="node">
<title>ProposalService</title>
<ellipse fill="#fdb462" stroke="black" cx="2755" cy="-104" rx="73.57" ry="18"/>
<text text-anchor="middle" x="2755" y="-99.8" font-family="Times,serif" font-size="14.00">ProposalService</text>
</g>
<!-- ProposalService&#45;&gt;AppModule -->
<g id="edge21" class="edge">
<title>ProposalService&#45;&gt;AppModule</title>
<path fill="none" stroke="black" d="M2755,-122.03C2755,-142.77 2755,-174 2755,-174 2755,-174 1689.75,-174 1689.75,-174"/>
<polygon fill="black" stroke="black" points="1689.75,-170.5 1679.75,-174 1689.75,-177.5 1689.75,-170.5"/>
</g>
<!-- UserRegisterService -->
<g id="node23" class="node">
<title>UserRegisterService</title>
<ellipse fill="#fdb462" stroke="black" cx="2573" cy="-104" rx="90.3" ry="18"/>
<text text-anchor="middle" x="2573" y="-99.8" font-family="Times,serif" font-size="14.00">UserRegisterService</text>
</g>
<!-- UserRegisterService&#45;&gt;AppModule -->
<g id="edge22" class="edge">
<title>UserRegisterService&#45;&gt;AppModule</title>
<path fill="none" stroke="black" d="M2573,-122.31C2573,-142.15 2573,-171 2573,-171 2573,-171 1689.69,-171 1689.69,-171"/>
<polygon fill="black" stroke="black" points="1689.69,-167.5 1679.69,-171 1689.69,-174.5 1689.69,-167.5"/>
</g>
</g>
</svg>
