<?xml version="1.0" encoding="UTF-8" standalone="no"?>
<!DOCTYPE svg PUBLIC "-//W3C//DTD SVG 1.1//EN"
 "http://www.w3.org/Graphics/SVG/1.1/DTD/svg11.dtd">
<!-- Generated by graphviz version 2.44.1 (20200629.0846)
 -->
<!-- Title: dependencies Pages: 1 -->
<svg width="3412pt" height="284pt"
 viewBox="0.00 0.00 3412.00 284.00" xmlns="http://www.w3.org/2000/svg" xmlns:xlink="http://www.w3.org/1999/xlink">
<g id="graph0" class="graph" transform="scale(1 1) rotate(0) translate(4 280)">
<title>dependencies</title>
<polygon fill="white" stroke="transparent" points="-4,4 -4,-280 3408,-280 3408,4 -4,4"/>
<text text-anchor="start" x="1681.01" y="-42.4" font-family="sans-serif" font-weight="bold" font-size="14.00">Legend</text>
<polygon fill="#ffffb3" stroke="transparent" points="1468,-10 1468,-30 1488,-30 1488,-10 1468,-10"/>
<text text-anchor="start" x="1491.63" y="-15.4" font-family="sans-serif" font-size="14.00"> &#160;Declarations</text>
<polygon fill="#8dd3c7" stroke="transparent" points="1581,-10 1581,-30 1601,-30 1601,-10 1581,-10"/>
<text text-anchor="start" x="1604.73" y="-15.4" font-family="sans-serif" font-size="14.00"> &#160;Module</text>
<polygon fill="#80b1d3" stroke="transparent" points="1667,-10 1667,-30 1687,-30 1687,-10 1667,-10"/>
<text text-anchor="start" x="1690.78" y="-15.4" font-family="sans-serif" font-size="14.00"> &#160;Bootstrap</text>
<polygon fill="#fdb462" stroke="transparent" points="1764,-10 1764,-30 1784,-30 1784,-10 1764,-10"/>
<text text-anchor="start" x="1787.67" y="-15.4" font-family="sans-serif" font-size="14.00"> &#160;Providers</text>
<polygon fill="#fb8072" stroke="transparent" points="1860,-10 1860,-30 1880,-30 1880,-10 1860,-10"/>
<text text-anchor="start" x="1883.73" y="-15.4" font-family="sans-serif" font-size="14.00"> &#160;Exports</text>
<g id="clust1" class="cluster">
<title>cluster_AppModule</title>
<polygon fill="none" stroke="black" stroke-dasharray="1,5" points="8,-70 8,-268 3396,-268 3396,-70 8,-70"/>
</g>
<g id="clust21" class="cluster">
<title>cluster_AppModule_bootstrap</title>
<polygon fill="none" stroke="black" points="1600,-208 1600,-260 1724,-260 1724,-208 1600,-208"/>
</g>
<g id="clust22" class="cluster">
<title>cluster_AppModule_providers</title>
<polygon fill="none" stroke="black" points="2627,-78 2627,-130 3388,-130 3388,-78 2627,-78"/>
</g>
<g id="clust2" class="cluster">
<title>cluster_AppModule_declarations</title>
<polygon fill="none" stroke="black" points="168,-78 168,-130 2619,-130 2619,-78 168,-78"/>
</g>
<g id="clust19" class="cluster">
<title>cluster_AppModule_imports</title>
<polygon fill="none" stroke="black" points="16,-78 16,-130 160,-130 160,-78 16,-78"/>
</g>
<!-- ApiResponseComponent -->
<g id="node1" class="node">
<title>ApiResponseComponent</title>
<polygon fill="#ffffb3" stroke="black" points="2610.98,-122 2455.02,-122 2455.02,-86 2610.98,-86 2610.98,-122"/>
<text text-anchor="middle" x="2533" y="-99.8" font-family="Times,serif" font-size="14.00">ApiResponseComponent</text>
</g>
<!-- AppModule -->
<g id="node17" class="node">
<title>AppModule</title>
<polygon fill="#8dd3c7" stroke="black" points="1703.66,-187 1700.66,-191 1679.66,-191 1676.66,-187 1620.34,-187 1620.34,-151 1703.66,-151 1703.66,-187"/>
<text text-anchor="middle" x="1662" y="-164.8" font-family="Times,serif" font-size="14.00">AppModule</text>
</g>
<!-- ApiResponseComponent&#45;&gt;AppModule -->
<g id="edge1" class="edge">
<title>ApiResponseComponent&#45;&gt;AppModule</title>
<path fill="none" stroke="black" d="M2533,-122.31C2533,-142.15 2533,-171 2533,-171 2533,-171 1713.72,-171 1713.72,-171"/>
<polygon fill="black" stroke="black" points="1713.72,-167.5 1703.72,-171 1713.72,-174.5 1713.72,-167.5"/>
</g>
<!-- AppComponent -->
<g id="node2" class="node">
<title>AppComponent</title>
<polygon fill="#ffffb3" stroke="black" points="2436.94,-122 2331.06,-122 2331.06,-86 2436.94,-86 2436.94,-122"/>
<text text-anchor="middle" x="2384" y="-99.8" font-family="Times,serif" font-size="14.00">AppComponent</text>
</g>
<!-- AppComponent&#45;&gt;AppModule -->
<g id="edge2" class="edge">
<title>AppComponent&#45;&gt;AppModule</title>
<path fill="none" stroke="black" d="M2384,-122.17C2384,-141.09 2384,-168 2384,-168 2384,-168 1713.67,-168 1713.67,-168"/>
<polygon fill="black" stroke="black" points="1713.67,-164.5 1703.67,-168 1713.67,-171.5 1713.67,-164.5"/>
</g>
<!-- CommentComponent -->
<g id="node3" class="node">
<title>CommentComponent</title>
<polygon fill="#ffffb3" stroke="black" points="2313.06,-122 2176.94,-122 2176.94,-86 2313.06,-86 2313.06,-122"/>
<text text-anchor="middle" x="2245" y="-99.8" font-family="Times,serif" font-size="14.00">CommentComponent</text>
</g>
<!-- CommentComponent&#45;&gt;AppModule -->
<g id="edge3" class="edge">
<title>CommentComponent&#45;&gt;AppModule</title>
<path fill="none" stroke="black" d="M2245,-122.3C2245,-140.27 2245,-165 2245,-165 2245,-165 1713.93,-165 1713.93,-165"/>
<polygon fill="black" stroke="black" points="1713.93,-161.5 1703.93,-165 1713.93,-168.5 1713.93,-161.5"/>
</g>
<!-- CreateProposalComponent -->
<g id="node4" class="node">
<title>CreateProposalComponent</title>
<polygon fill="#ffffb3" stroke="black" points="2158.36,-122 1991.64,-122 1991.64,-86 2158.36,-86 2158.36,-122"/>
<text text-anchor="middle" x="2075" y="-99.8" font-family="Times,serif" font-size="14.00">CreateProposalComponent</text>
</g>
<!-- CreateProposalComponent&#45;&gt;AppModule -->
<g id="edge4" class="edge">
<title>CreateProposalComponent&#45;&gt;AppModule</title>
<path fill="none" stroke="black" d="M2075,-122.04C2075,-138.73 2075,-161 2075,-161 2075,-161 1713.87,-161 1713.87,-161"/>
<polygon fill="black" stroke="black" points="1713.87,-157.5 1703.87,-161 1713.87,-164.5 1713.87,-157.5"/>
</g>
<!-- ErrorComponent -->
<g id="node5" class="node">
<title>ErrorComponent</title>
<polygon fill="#ffffb3" stroke="black" points="1973.37,-122 1862.63,-122 1862.63,-86 1973.37,-86 1973.37,-122"/>
<text text-anchor="middle" x="1918" y="-99.8" font-family="Times,serif" font-size="14.00">ErrorComponent</text>
</g>
<!-- ErrorComponent&#45;&gt;AppModule -->
<g id="edge5" class="edge">
<title>ErrorComponent&#45;&gt;AppModule</title>
<path fill="none" stroke="black" d="M1918,-122.28C1918,-137.95 1918,-158 1918,-158 1918,-158 1713.7,-158 1713.7,-158"/>
<polygon fill="black" stroke="black" points="1713.7,-154.5 1703.7,-158 1713.7,-161.5 1713.7,-154.5"/>
</g>
<!-- FeedComponent -->
<g id="node6" class="node">
<title>FeedComponent</title>
<polygon fill="#ffffb3" stroke="black" points="1844.05,-122 1735.95,-122 1735.95,-86 1844.05,-86 1844.05,-122"/>
<text text-anchor="middle" x="1790" y="-99.8" font-family="Times,serif" font-size="14.00">FeedComponent</text>
</g>
<!-- FeedComponent&#45;&gt;AppModule -->
<g id="edge6" class="edge">
<title>FeedComponent&#45;&gt;AppModule</title>
<path fill="none" stroke="black" d="M1790,-122.12C1790,-136.78 1790,-155 1790,-155 1790,-155 1713.91,-155 1713.91,-155"/>
<polygon fill="black" stroke="black" points="1713.91,-151.5 1703.91,-155 1713.91,-158.5 1713.91,-151.5"/>
</g>
<!-- FilterComponent -->
<g id="node7" class="node">
<title>FilterComponent</title>
<polygon fill="#ffffb3" stroke="black" points="1717.66,-122 1606.34,-122 1606.34,-86 1717.66,-86 1717.66,-122"/>
<text text-anchor="middle" x="1662" y="-99.8" font-family="Times,serif" font-size="14.00">FilterComponent</text>
</g>
<!-- FilterComponent&#45;&gt;AppModule -->
<g id="edge7" class="edge">
<title>FilterComponent&#45;&gt;AppModule</title>
<path fill="none" stroke="black" d="M1662,-122.11C1662,-122.11 1662,-140.99 1662,-140.99"/>
<polygon fill="black" stroke="black" points="1658.5,-140.99 1662,-150.99 1665.5,-140.99 1658.5,-140.99"/>
</g>
<!-- ForgetPasswordComponent -->
<g id="node8" class="node">
<title>ForgetPasswordComponent</title>
<polygon fill="#ffffb3" stroke="black" points="1587.54,-122 1416.46,-122 1416.46,-86 1587.54,-86 1587.54,-122"/>
<text text-anchor="middle" x="1502" y="-99.8" font-family="Times,serif" font-size="14.00">ForgetPasswordComponent</text>
</g>
<!-- ForgetPasswordComponent&#45;&gt;AppModule -->
<g id="edge8" class="edge">
<title>ForgetPasswordComponent&#45;&gt;AppModule</title>
<path fill="none" stroke="black" d="M1502,-122.12C1502,-136.78 1502,-155 1502,-155 1502,-155 1609.96,-155 1609.96,-155"/>
<polygon fill="black" stroke="black" points="1609.96,-158.5 1619.96,-155 1609.96,-151.5 1609.96,-158.5"/>
</g>
<!-- HomeComponent -->
<g id="node9" class="node">
<title>HomeComponent</title>
<polygon fill="#ffffb3" stroke="black" points="1397.55,-122 1282.45,-122 1282.45,-86 1397.55,-86 1397.55,-122"/>
<text text-anchor="middle" x="1340" y="-99.8" font-family="Times,serif" font-size="14.00">HomeComponent</text>
</g>
<!-- HomeComponent&#45;&gt;AppModule -->
<g id="edge9" class="edge">
<title>HomeComponent&#45;&gt;AppModule</title>
<path fill="none" stroke="black" d="M1340,-122.28C1340,-137.95 1340,-158 1340,-158 1340,-158 1610.23,-158 1610.23,-158"/>
<polygon fill="black" stroke="black" points="1610.23,-161.5 1620.23,-158 1610.23,-154.5 1610.23,-161.5"/>
</g>
<!-- LandingPageComponent -->
<g id="node10" class="node">
<title>LandingPageComponent</title>
<polygon fill="#ffffb3" stroke="black" points="1264.7,-122 1109.3,-122 1109.3,-86 1264.7,-86 1264.7,-122"/>
<text text-anchor="middle" x="1187" y="-99.8" font-family="Times,serif" font-size="14.00">LandingPageComponent</text>
</g>
<!-- LandingPageComponent&#45;&gt;AppModule -->
<g id="edge10" class="edge">
<title>LandingPageComponent&#45;&gt;AppModule</title>
<path fill="none" stroke="black" d="M1187,-122.04C1187,-138.73 1187,-161 1187,-161 1187,-161 1610.26,-161 1610.26,-161"/>
<polygon fill="black" stroke="black" points="1610.26,-164.5 1620.26,-161 1610.26,-157.5 1610.26,-164.5"/>
</g>
<!-- LoginComponent -->
<g id="node11" class="node">
<title>LoginComponent</title>
<polygon fill="#ffffb3" stroke="black" points="1091.28,-122 976.72,-122 976.72,-86 1091.28,-86 1091.28,-122"/>
<text text-anchor="middle" x="1034" y="-99.8" font-family="Times,serif" font-size="14.00">LoginComponent</text>
</g>
<!-- LoginComponent&#45;&gt;AppModule -->
<g id="edge11" class="edge">
<title>LoginComponent&#45;&gt;AppModule</title>
<path fill="none" stroke="black" d="M1034,-122.3C1034,-140.27 1034,-165 1034,-165 1034,-165 1610.31,-165 1610.31,-165"/>
<polygon fill="black" stroke="black" points="1610.31,-168.5 1620.31,-165 1610.31,-161.5 1610.31,-168.5"/>
</g>
<!-- PasswordSpecsComponent -->
<g id="node12" class="node">
<title>PasswordSpecsComponent</title>
<polygon fill="#ffffb3" stroke="black" points="958.64,-122 791.36,-122 791.36,-86 958.64,-86 958.64,-122"/>
<text text-anchor="middle" x="875" y="-99.8" font-family="Times,serif" font-size="14.00">PasswordSpecsComponent</text>
</g>
<!-- PasswordSpecsComponent&#45;&gt;AppModule -->
<g id="edge12" class="edge">
<title>PasswordSpecsComponent&#45;&gt;AppModule</title>
<path fill="none" stroke="black" d="M875,-122.17C875,-141.09 875,-168 875,-168 875,-168 1610.24,-168 1610.24,-168"/>
<polygon fill="black" stroke="black" points="1610.24,-171.5 1620.24,-168 1610.24,-164.5 1610.24,-171.5"/>
</g>
<!-- RegisterComponent -->
<g id="node13" class="node">
<title>RegisterComponent</title>
<polygon fill="#ffffb3" stroke="black" points="772.98,-122 645.02,-122 645.02,-86 772.98,-86 772.98,-122"/>
<text text-anchor="middle" x="709" y="-99.8" font-family="Times,serif" font-size="14.00">RegisterComponent</text>
</g>
<!-- RegisterComponent&#45;&gt;AppModule -->
<g id="edge13" class="edge">
<title>RegisterComponent&#45;&gt;AppModule</title>
<path fill="none" stroke="black" d="M709,-122.31C709,-142.15 709,-171 709,-171 709,-171 1610.13,-171 1610.13,-171"/>
<polygon fill="black" stroke="black" points="1610.13,-174.5 1620.13,-171 1610.13,-167.5 1610.13,-174.5"/>
</g>
<!-- ResetLinkComponent -->
<g id="node14" class="node">
<title>ResetLinkComponent</title>
<polygon fill="#ffffb3" stroke="black" points="627.38,-122 488.62,-122 488.62,-86 627.38,-86 627.38,-122"/>
<text text-anchor="middle" x="558" y="-99.8" font-family="Times,serif" font-size="14.00">ResetLinkComponent</text>
</g>
<!-- ResetLinkComponent&#45;&gt;AppModule -->
<g id="edge14" class="edge">
<title>ResetLinkComponent&#45;&gt;AppModule</title>
<path fill="none" stroke="black" d="M558,-122.03C558,-142.77 558,-174 558,-174 558,-174 1610.07,-174 1610.07,-174"/>
<polygon fill="black" stroke="black" points="1610.07,-177.5 1620.07,-174 1610.07,-170.5 1610.07,-177.5"/>
</g>
<!-- ShareProposalComponent -->
<g id="node15" class="node">
<title>ShareProposalComponent</title>
<polygon fill="#ffffb3" stroke="black" points="470.2,-122 307.8,-122 307.8,-86 470.2,-86 470.2,-122"/>
<text text-anchor="middle" x="389" y="-99.8" font-family="Times,serif" font-size="14.00">ShareProposalComponent</text>
</g>
<!-- ShareProposalComponent&#45;&gt;AppModule -->
<g id="edge15" class="edge">
<title>ShareProposalComponent&#45;&gt;AppModule</title>
<path fill="none" stroke="black" d="M389,-122.29C389,-144.21 389,-178 389,-178 389,-178 1610.01,-178 1610.01,-178"/>
<polygon fill="black" stroke="black" points="1610.01,-181.5 1620.01,-178 1610.01,-174.5 1610.01,-181.5"/>
</g>
<!-- TeamComponent -->
<g id="node16" class="node">
<title>TeamComponent</title>
<polygon fill="#ffffb3" stroke="black" points="289.7,-122 176.3,-122 176.3,-86 289.7,-86 289.7,-122"/>
<text text-anchor="middle" x="233" y="-99.8" font-family="Times,serif" font-size="14.00">TeamComponent</text>
</g>
<!-- TeamComponent&#45;&gt;AppModule -->
<g id="edge16" class="edge">
<title>TeamComponent&#45;&gt;AppModule</title>
<path fill="none" stroke="black" d="M233,-122.25C233,-145.02 233,-181 233,-181 233,-181 1610.01,-181 1610.01,-181"/>
<polygon fill="black" stroke="black" points="1610.01,-184.5 1620.01,-181 1610.01,-177.5 1610.01,-184.5"/>
</g>
<!-- AppComponent  -->
<g id="node19" class="node">
<title>AppComponent </title>
<polygon fill="#80b1d3" stroke="black" points="1716.44,-252 1607.56,-252 1607.56,-216 1716.44,-216 1716.44,-252"/>
<text text-anchor="middle" x="1662" y="-229.8" font-family="Times,serif" font-size="14.00">AppComponent </text>
</g>
<!-- AppModule&#45;&gt;AppComponent  -->
<g id="edge18" class="edge">
<title>AppModule&#45;&gt;AppComponent </title>
<path fill="none" stroke="black" stroke-dasharray="1,5" d="M1662,-187.11C1662,-187.11 1662,-205.99 1662,-205.99"/>
<polygon fill="black" stroke="black" points="1658.5,-205.99 1662,-215.99 1665.5,-205.99 1658.5,-205.99"/>
</g>
<!-- AppRoutingModule -->
<g id="node18" class="node">
<title>AppRoutingModule</title>
<polygon fill="#8dd3c7" stroke="black" points="152.27,-122 149.27,-126 128.27,-126 125.27,-122 23.73,-122 23.73,-86 152.27,-86 152.27,-122"/>
<text text-anchor="middle" x="88" y="-99.8" font-family="Times,serif" font-size="14.00">AppRoutingModule</text>
</g>
<!-- AppRoutingModule&#45;&gt;AppModule -->
<g id="edge17" class="edge">
<title>AppRoutingModule&#45;&gt;AppModule</title>
<path fill="none" stroke="black" d="M88,-122.15C88,-145.76 88,-184 88,-184 88,-184 1610.3,-184 1610.3,-184"/>
<polygon fill="black" stroke="black" points="1610.3,-187.5 1620.3,-184 1610.3,-180.5 1610.3,-187.5"/>
</g>
<!-- GetProposalsService -->
<g id="node20" class="node">
<title>GetProposalsService</title>
<ellipse fill="#fdb462" stroke="black" cx="3289" cy="-104" rx="91.47" ry="18"/>
<text text-anchor="middle" x="3289" y="-99.8" font-family="Times,serif" font-size="14.00">GetProposalsService</text>
</g>
<!-- GetProposalsService&#45;&gt;AppModule -->
<g id="edge19" class="edge">
<title>GetProposalsService&#45;&gt;AppModule</title>
<path fill="none" stroke="black" d="M3289,-122.15C3289,-145.76 3289,-184 3289,-184 3289,-184 1713.85,-184 1713.85,-184"/>
<polygon fill="black" stroke="black" points="1713.85,-180.5 1703.85,-184 1713.85,-187.5 1713.85,-180.5"/>
</g>
<!-- PostProposalService -->
<g id="node21" class="node">
<title>PostProposalService</title>
<ellipse fill="#fdb462" stroke="black" cx="3089" cy="-104" rx="90.34" ry="18"/>
<text text-anchor="middle" x="3089" y="-99.8" font-family="Times,serif" font-size="14.00">PostProposalService</text>
</g>
<!-- PostProposalService&#45;&gt;AppModule -->
<g id="edge20" class="edge">
<title>PostProposalService&#45;&gt;AppModule</title>
<path fill="none" stroke="black" d="M3089,-122.25C3089,-145.02 3089,-181 3089,-181 3089,-181 1713.93,-181 1713.93,-181"/>
<polygon fill="black" stroke="black" points="1713.93,-177.5 1703.93,-181 1713.93,-184.5 1713.93,-177.5"/>
</g>
<!-- ProposalService -->
<g id="node22" class="node">
<title>ProposalService</title>
<ellipse fill="#fdb462" stroke="black" cx="2907" cy="-104" rx="73.57" ry="18"/>
<text text-anchor="middle" x="2907" y="-99.8" font-family="Times,serif" font-size="14.00">ProposalService</text>
</g>
<!-- ProposalService&#45;&gt;AppModule -->
<g id="edge21" class="edge">
<title>ProposalService&#45;&gt;AppModule</title>
<path fill="none" stroke="black" d="M2907,-122.29C2907,-144.21 2907,-178 2907,-178 2907,-178 1713.78,-178 1713.78,-178"/>
<polygon fill="black" stroke="black" points="1713.78,-174.5 1703.78,-178 1713.78,-181.5 1713.78,-174.5"/>
</g>
<!-- UserRegisterService -->
<g id="node23" class="node">
<title>UserRegisterService</title>
<ellipse fill="#fdb462" stroke="black" cx="2725" cy="-104" rx="90.3" ry="18"/>
<text text-anchor="middle" x="2725" y="-99.8" font-family="Times,serif" font-size="14.00">UserRegisterService</text>
</g>
<!-- UserRegisterService&#45;&gt;AppModule -->
<g id="edge22" class="edge">
<title>UserRegisterService&#45;&gt;AppModule</title>
<path fill="none" stroke="black" d="M2725,-122.03C2725,-142.77 2725,-174 2725,-174 2725,-174 1713.67,-174 1713.67,-174"/>
<polygon fill="black" stroke="black" points="1713.67,-170.5 1703.67,-174 1713.67,-177.5 1713.67,-170.5"/>
</g>
</g>
</svg>
