<?xml version="1.0" encoding="UTF-8" standalone="no"?>
<!DOCTYPE svg PUBLIC "-//W3C//DTD SVG 1.1//EN"
 "http://www.w3.org/Graphics/SVG/1.1/DTD/svg11.dtd">
<!-- Generated by graphviz version 2.44.1 (20200629.0846)
 -->
<!-- Title: dependencies Pages: 1 -->
<svg width="3581pt" height="284pt"
 viewBox="0.00 0.00 3581.00 284.00" xmlns="http://www.w3.org/2000/svg" xmlns:xlink="http://www.w3.org/1999/xlink">
<g id="graph0" class="graph" transform="scale(1 1) rotate(0) translate(4 280)">
<title>dependencies</title>
<polygon fill="white" stroke="transparent" points="-4,4 -4,-280 3577,-280 3577,4 -4,4"/>
<text text-anchor="start" x="1765.51" y="-42.4" font-family="sans-serif" font-weight="bold" font-size="14.00">Legend</text>
<polygon fill="#ffffb3" stroke="transparent" points="1552.5,-10 1552.5,-30 1572.5,-30 1572.5,-10 1552.5,-10"/>
<text text-anchor="start" x="1576.13" y="-15.4" font-family="sans-serif" font-size="14.00"> &#160;Declarations</text>
<polygon fill="#8dd3c7" stroke="transparent" points="1665.5,-10 1665.5,-30 1685.5,-30 1685.5,-10 1665.5,-10"/>
<text text-anchor="start" x="1689.23" y="-15.4" font-family="sans-serif" font-size="14.00"> &#160;Module</text>
<polygon fill="#80b1d3" stroke="transparent" points="1751.5,-10 1751.5,-30 1771.5,-30 1771.5,-10 1751.5,-10"/>
<text text-anchor="start" x="1775.28" y="-15.4" font-family="sans-serif" font-size="14.00"> &#160;Bootstrap</text>
<polygon fill="#fdb462" stroke="transparent" points="1848.5,-10 1848.5,-30 1868.5,-30 1868.5,-10 1848.5,-10"/>
<text text-anchor="start" x="1872.17" y="-15.4" font-family="sans-serif" font-size="14.00"> &#160;Providers</text>
<polygon fill="#fb8072" stroke="transparent" points="1944.5,-10 1944.5,-30 1964.5,-30 1964.5,-10 1944.5,-10"/>
<text text-anchor="start" x="1968.23" y="-15.4" font-family="sans-serif" font-size="14.00"> &#160;Exports</text>
<g id="clust1" class="cluster">
<title>cluster_AppModule</title>
<polygon fill="none" stroke="black" stroke-dasharray="1,5" points="8,-70 8,-268 3565,-268 3565,-70 8,-70"/>
</g>
<g id="clust19" class="cluster">
<title>cluster_AppModule_imports</title>
<polygon fill="none" stroke="black" points="3413,-78 3413,-130 3557,-130 3557,-78 3413,-78"/>
</g>
<g id="clust2" class="cluster">
<title>cluster_AppModule_declarations</title>
<polygon fill="none" stroke="black" points="954,-78 954,-130 3405,-130 3405,-78 954,-78"/>
</g>
<g id="clust21" class="cluster">
<title>cluster_AppModule_bootstrap</title>
<polygon fill="none" stroke="black" points="1834,-208 1834,-260 1958,-260 1958,-208 1834,-208"/>
</g>
<g id="clust22" class="cluster">
<title>cluster_AppModule_providers</title>
<polygon fill="none" stroke="black" points="16,-78 16,-130 946,-130 946,-78 16,-78"/>
</g>
<!-- ApiResponseComponent -->
<g id="node1" class="node">
<title>ApiResponseComponent</title>
<polygon fill="#ffffb3" stroke="black" points="3396.98,-122 3241.02,-122 3241.02,-86 3396.98,-86 3396.98,-122"/>
<text text-anchor="middle" x="3319" y="-99.8" font-family="Times,serif" font-size="14.00">ApiResponseComponent</text>
</g>
<!-- AppModule -->
<g id="node17" class="node">
<title>AppModule</title>
<polygon fill="#8dd3c7" stroke="black" points="1937.66,-187 1934.66,-191 1913.66,-191 1910.66,-187 1854.34,-187 1854.34,-151 1937.66,-151 1937.66,-187"/>
<text text-anchor="middle" x="1896" y="-164.8" font-family="Times,serif" font-size="14.00">AppModule</text>
</g>
<!-- ApiResponseComponent&#45;&gt;AppModule -->
<g id="edge1" class="edge">
<title>ApiResponseComponent&#45;&gt;AppModule</title>
<path fill="none" stroke="black" d="M3319,-122.25C3319,-145.02 3319,-181 3319,-181 3319,-181 1947.82,-181 1947.82,-181"/>
<polygon fill="black" stroke="black" points="1947.82,-177.5 1937.82,-181 1947.82,-184.5 1947.82,-177.5"/>
</g>
<!-- AppComponent -->
<g id="node2" class="node">
<title>AppComponent</title>
<polygon fill="#ffffb3" stroke="black" points="3222.94,-122 3117.06,-122 3117.06,-86 3222.94,-86 3222.94,-122"/>
<text text-anchor="middle" x="3170" y="-99.8" font-family="Times,serif" font-size="14.00">AppComponent</text>
</g>
<!-- AppComponent&#45;&gt;AppModule -->
<g id="edge2" class="edge">
<title>AppComponent&#45;&gt;AppModule</title>
<path fill="none" stroke="black" d="M3170,-122.29C3170,-144.21 3170,-178 3170,-178 3170,-178 1947.66,-178 1947.66,-178"/>
<polygon fill="black" stroke="black" points="1947.66,-174.5 1937.66,-178 1947.66,-181.5 1947.66,-174.5"/>
</g>
<!-- CommentComponent -->
<g id="node3" class="node">
<title>CommentComponent</title>
<polygon fill="#ffffb3" stroke="black" points="3099.06,-122 2962.94,-122 2962.94,-86 3099.06,-86 3099.06,-122"/>
<text text-anchor="middle" x="3031" y="-99.8" font-family="Times,serif" font-size="14.00">CommentComponent</text>
</g>
<!-- CommentComponent&#45;&gt;AppModule -->
<g id="edge3" class="edge">
<title>CommentComponent&#45;&gt;AppModule</title>
<path fill="none" stroke="black" d="M3031,-122.03C3031,-142.77 3031,-174 3031,-174 3031,-174 1947.74,-174 1947.74,-174"/>
<polygon fill="black" stroke="black" points="1947.74,-170.5 1937.74,-174 1947.74,-177.5 1947.74,-170.5"/>
</g>
<!-- CreateProposalComponent -->
<g id="node4" class="node">
<title>CreateProposalComponent</title>
<polygon fill="#ffffb3" stroke="black" points="2944.36,-122 2777.64,-122 2777.64,-86 2944.36,-86 2944.36,-122"/>
<text text-anchor="middle" x="2861" y="-99.8" font-family="Times,serif" font-size="14.00">CreateProposalComponent</text>
</g>
<!-- CreateProposalComponent&#45;&gt;AppModule -->
<g id="edge4" class="edge">
<title>CreateProposalComponent&#45;&gt;AppModule</title>
<path fill="none" stroke="black" d="M2861,-122.31C2861,-142.15 2861,-171 2861,-171 2861,-171 1947.77,-171 1947.77,-171"/>
<polygon fill="black" stroke="black" points="1947.77,-167.5 1937.77,-171 1947.77,-174.5 1947.77,-167.5"/>
</g>
<!-- ErrorComponent -->
<g id="node5" class="node">
<title>ErrorComponent</title>
<polygon fill="#ffffb3" stroke="black" points="2759.37,-122 2648.63,-122 2648.63,-86 2759.37,-86 2759.37,-122"/>
<text text-anchor="middle" x="2704" y="-99.8" font-family="Times,serif" font-size="14.00">ErrorComponent</text>
</g>
<!-- ErrorComponent&#45;&gt;AppModule -->
<g id="edge5" class="edge">
<title>ErrorComponent&#45;&gt;AppModule</title>
<path fill="none" stroke="black" d="M2704,-122.17C2704,-141.09 2704,-168 2704,-168 2704,-168 1947.74,-168 1947.74,-168"/>
<polygon fill="black" stroke="black" points="1947.74,-164.5 1937.74,-168 1947.74,-171.5 1947.74,-164.5"/>
</g>
<!-- FeedComponent -->
<g id="node6" class="node">
<title>FeedComponent</title>
<polygon fill="#ffffb3" stroke="black" points="2630.05,-122 2521.95,-122 2521.95,-86 2630.05,-86 2630.05,-122"/>
<text text-anchor="middle" x="2576" y="-99.8" font-family="Times,serif" font-size="14.00">FeedComponent</text>
</g>
<!-- FeedComponent&#45;&gt;AppModule -->
<g id="edge6" class="edge">
<title>FeedComponent&#45;&gt;AppModule</title>
<path fill="none" stroke="black" d="M2576,-122.3C2576,-140.27 2576,-165 2576,-165 2576,-165 1947.77,-165 1947.77,-165"/>
<polygon fill="black" stroke="black" points="1947.77,-161.5 1937.77,-165 1947.77,-168.5 1947.77,-161.5"/>
</g>
<!-- FilterComponent -->
<g id="node7" class="node">
<title>FilterComponent</title>
<polygon fill="#ffffb3" stroke="black" points="2503.66,-122 2392.34,-122 2392.34,-86 2503.66,-86 2503.66,-122"/>
<text text-anchor="middle" x="2448" y="-99.8" font-family="Times,serif" font-size="14.00">FilterComponent</text>
</g>
<!-- FilterComponent&#45;&gt;AppModule -->
<g id="edge7" class="edge">
<title>FilterComponent&#45;&gt;AppModule</title>
<path fill="none" stroke="black" d="M2448,-122.04C2448,-138.73 2448,-161 2448,-161 2448,-161 1947.94,-161 1947.94,-161"/>
<polygon fill="black" stroke="black" points="1947.94,-157.5 1937.94,-161 1947.94,-164.5 1947.94,-157.5"/>
</g>
<!-- ForgetPasswordComponent -->
<g id="node8" class="node">
<title>ForgetPasswordComponent</title>
<polygon fill="#ffffb3" stroke="black" points="2373.54,-122 2202.46,-122 2202.46,-86 2373.54,-86 2373.54,-122"/>
<text text-anchor="middle" x="2288" y="-99.8" font-family="Times,serif" font-size="14.00">ForgetPasswordComponent</text>
</g>
<!-- ForgetPasswordComponent&#45;&gt;AppModule -->
<g id="edge8" class="edge">
<title>ForgetPasswordComponent&#45;&gt;AppModule</title>
<path fill="none" stroke="black" d="M2288,-122.28C2288,-137.95 2288,-158 2288,-158 2288,-158 1947.95,-158 1947.95,-158"/>
<polygon fill="black" stroke="black" points="1947.95,-154.5 1937.95,-158 1947.95,-161.5 1947.95,-154.5"/>
</g>
<!-- HomeComponent -->
<g id="node9" class="node">
<title>HomeComponent</title>
<polygon fill="#ffffb3" stroke="black" points="2183.55,-122 2068.45,-122 2068.45,-86 2183.55,-86 2183.55,-122"/>
<text text-anchor="middle" x="2126" y="-99.8" font-family="Times,serif" font-size="14.00">HomeComponent</text>
</g>
<!-- HomeComponent&#45;&gt;AppModule -->
<g id="edge9" class="edge">
<title>HomeComponent&#45;&gt;AppModule</title>
<path fill="none" stroke="black" d="M2126,-122.12C2126,-136.78 2126,-155 2126,-155 2126,-155 1947.92,-155 1947.92,-155"/>
<polygon fill="black" stroke="black" points="1947.92,-151.5 1937.92,-155 1947.92,-158.5 1947.92,-151.5"/>
</g>
<!-- LandingPageComponent -->
<g id="node10" class="node">
<title>LandingPageComponent</title>
<polygon fill="#ffffb3" stroke="black" points="2050.7,-122 1895.3,-122 1895.3,-86 2050.7,-86 2050.7,-122"/>
<text text-anchor="middle" x="1973" y="-99.8" font-family="Times,serif" font-size="14.00">LandingPageComponent</text>
</g>
<!-- LandingPageComponent&#45;&gt;AppModule -->
<g id="edge10" class="edge">
<title>LandingPageComponent&#45;&gt;AppModule</title>
<path fill="none" stroke="black" d="M1916.61,-122.11C1916.61,-122.11 1916.61,-140.99 1916.61,-140.99"/>
<polygon fill="black" stroke="black" points="1913.11,-140.99 1916.61,-150.99 1920.11,-140.99 1913.11,-140.99"/>
</g>
<!-- LoginComponent -->
<g id="node11" class="node">
<title>LoginComponent</title>
<polygon fill="#ffffb3" stroke="black" points="1877.28,-122 1762.72,-122 1762.72,-86 1877.28,-86 1877.28,-122"/>
<text text-anchor="middle" x="1820" y="-99.8" font-family="Times,serif" font-size="14.00">LoginComponent</text>
</g>
<!-- LoginComponent&#45;&gt;AppModule -->
<g id="edge11" class="edge">
<title>LoginComponent&#45;&gt;AppModule</title>
<path fill="none" stroke="black" d="M1865.78,-122.11C1865.78,-122.11 1865.78,-140.99 1865.78,-140.99"/>
<polygon fill="black" stroke="black" points="1862.28,-140.99 1865.78,-150.99 1869.28,-140.99 1862.28,-140.99"/>
</g>
<!-- PasswordSpecsComponent -->
<g id="node12" class="node">
<title>PasswordSpecsComponent</title>
<polygon fill="#ffffb3" stroke="black" points="1744.64,-122 1577.36,-122 1577.36,-86 1744.64,-86 1744.64,-122"/>
<text text-anchor="middle" x="1661" y="-99.8" font-family="Times,serif" font-size="14.00">PasswordSpecsComponent</text>
</g>
<!-- PasswordSpecsComponent&#45;&gt;AppModule -->
<g id="edge12" class="edge">
<title>PasswordSpecsComponent&#45;&gt;AppModule</title>
<path fill="none" stroke="black" d="M1661,-122.12C1661,-136.78 1661,-155 1661,-155 1661,-155 1844.26,-155 1844.26,-155"/>
<polygon fill="black" stroke="black" points="1844.26,-158.5 1854.26,-155 1844.26,-151.5 1844.26,-158.5"/>
</g>
<!-- RegisterComponent -->
<g id="node13" class="node">
<title>RegisterComponent</title>
<polygon fill="#ffffb3" stroke="black" points="1558.98,-122 1431.02,-122 1431.02,-86 1558.98,-86 1558.98,-122"/>
<text text-anchor="middle" x="1495" y="-99.8" font-family="Times,serif" font-size="14.00">RegisterComponent</text>
</g>
<!-- RegisterComponent&#45;&gt;AppModule -->
<g id="edge13" class="edge">
<title>RegisterComponent&#45;&gt;AppModule</title>
<path fill="none" stroke="black" d="M1495,-122.28C1495,-137.95 1495,-158 1495,-158 1495,-158 1844.22,-158 1844.22,-158"/>
<polygon fill="black" stroke="black" points="1844.22,-161.5 1854.22,-158 1844.22,-154.5 1844.22,-161.5"/>
</g>
<!-- ResetLinkComponent -->
<g id="node14" class="node">
<title>ResetLinkComponent</title>
<polygon fill="#ffffb3" stroke="black" points="1413.38,-122 1274.62,-122 1274.62,-86 1413.38,-86 1413.38,-122"/>
<text text-anchor="middle" x="1344" y="-99.8" font-family="Times,serif" font-size="14.00">ResetLinkComponent</text>
</g>
<!-- ResetLinkComponent&#45;&gt;AppModule -->
<g id="edge14" class="edge">
<title>ResetLinkComponent&#45;&gt;AppModule</title>
<path fill="none" stroke="black" d="M1344,-122.04C1344,-138.73 1344,-161 1344,-161 1344,-161 1844.06,-161 1844.06,-161"/>
<polygon fill="black" stroke="black" points="1844.06,-164.5 1854.06,-161 1844.06,-157.5 1844.06,-164.5"/>
</g>
<!-- ShareProposalComponent -->
<g id="node15" class="node">
<title>ShareProposalComponent</title>
<polygon fill="#ffffb3" stroke="black" points="1256.2,-122 1093.8,-122 1093.8,-86 1256.2,-86 1256.2,-122"/>
<text text-anchor="middle" x="1175" y="-99.8" font-family="Times,serif" font-size="14.00">ShareProposalComponent</text>
</g>
<!-- ShareProposalComponent&#45;&gt;AppModule -->
<g id="edge15" class="edge">
<title>ShareProposalComponent&#45;&gt;AppModule</title>
<path fill="none" stroke="black" d="M1175,-122.3C1175,-140.27 1175,-165 1175,-165 1175,-165 1844.12,-165 1844.12,-165"/>
<polygon fill="black" stroke="black" points="1844.12,-168.5 1854.12,-165 1844.12,-161.5 1844.12,-168.5"/>
</g>
<!-- TeamComponent -->
<g id="node16" class="node">
<title>TeamComponent</title>
<polygon fill="#ffffb3" stroke="black" points="1075.7,-122 962.3,-122 962.3,-86 1075.7,-86 1075.7,-122"/>
<text text-anchor="middle" x="1019" y="-99.8" font-family="Times,serif" font-size="14.00">TeamComponent</text>
</g>
<!-- TeamComponent&#45;&gt;AppModule -->
<g id="edge16" class="edge">
<title>TeamComponent&#45;&gt;AppModule</title>
<path fill="none" stroke="black" d="M1019,-122.17C1019,-141.09 1019,-168 1019,-168 1019,-168 1844.29,-168 1844.29,-168"/>
<polygon fill="black" stroke="black" points="1844.29,-171.5 1854.29,-168 1844.29,-164.5 1844.29,-171.5"/>
</g>
<!-- AppComponent  -->
<g id="node19" class="node">
<title>AppComponent </title>
<polygon fill="#80b1d3" stroke="black" points="1950.44,-252 1841.56,-252 1841.56,-216 1950.44,-216 1950.44,-252"/>
<text text-anchor="middle" x="1896" y="-229.8" font-family="Times,serif" font-size="14.00">AppComponent </text>
</g>
<!-- AppModule&#45;&gt;AppComponent  -->
<g id="edge18" class="edge">
<title>AppModule&#45;&gt;AppComponent </title>
<path fill="none" stroke="black" stroke-dasharray="1,5" d="M1896,-187.11C1896,-187.11 1896,-205.99 1896,-205.99"/>
<polygon fill="black" stroke="black" points="1892.5,-205.99 1896,-215.99 1899.5,-205.99 1892.5,-205.99"/>
</g>
<!-- AppRoutingModule -->
<g id="node18" class="node">
<title>AppRoutingModule</title>
<polygon fill="#8dd3c7" stroke="black" points="3549.27,-122 3546.27,-126 3525.27,-126 3522.27,-122 3420.73,-122 3420.73,-86 3549.27,-86 3549.27,-122"/>
<text text-anchor="middle" x="3485" y="-99.8" font-family="Times,serif" font-size="14.00">AppRoutingModule</text>
</g>
<!-- AppRoutingModule&#45;&gt;AppModule -->
<g id="edge17" class="edge">
<title>AppRoutingModule&#45;&gt;AppModule</title>
<path fill="none" stroke="black" d="M3485,-122.15C3485,-145.76 3485,-184 3485,-184 3485,-184 1947.69,-184 1947.69,-184"/>
<polygon fill="black" stroke="black" points="1947.69,-180.5 1937.69,-184 1947.69,-187.5 1947.69,-180.5"/>
</g>
<!-- GetProposalsService -->
<g id="node20" class="node">
<title>GetProposalsService</title>
<ellipse fill="#fdb462" stroke="black" cx="847" cy="-104" rx="91.47" ry="18"/>
<text text-anchor="middle" x="847" y="-99.8" font-family="Times,serif" font-size="14.00">GetProposalsService</text>
</g>
<!-- GetProposalsService&#45;&gt;AppModule -->
<g id="edge19" class="edge">
<title>GetProposalsService&#45;&gt;AppModule</title>
<path fill="none" stroke="black" d="M847,-122.31C847,-142.15 847,-171 847,-171 847,-171 1844.23,-171 1844.23,-171"/>
<polygon fill="black" stroke="black" points="1844.23,-174.5 1854.23,-171 1844.23,-167.5 1844.23,-174.5"/>
</g>
<!-- GetTeamService -->
<g id="node21" class="node">
<title>GetTeamService</title>
<ellipse fill="#fdb462" stroke="black" cx="662" cy="-104" rx="75.84" ry="18"/>
<text text-anchor="middle" x="662" y="-99.8" font-family="Times,serif" font-size="14.00">GetTeamService</text>
</g>
<!-- GetTeamService&#45;&gt;AppModule -->
<g id="edge20" class="edge">
<title>GetTeamService&#45;&gt;AppModule</title>
<path fill="none" stroke="black" d="M662,-122.03C662,-142.77 662,-174 662,-174 662,-174 1844.24,-174 1844.24,-174"/>
<polygon fill="black" stroke="black" points="1844.24,-177.5 1854.24,-174 1844.24,-170.5 1844.24,-177.5"/>
</g>
<!-- PostProposalService -->
<g id="node22" class="node">
<title>PostProposalService</title>
<ellipse fill="#fdb462" stroke="black" cx="478" cy="-104" rx="90.34" ry="18"/>
<text text-anchor="middle" x="478" y="-99.8" font-family="Times,serif" font-size="14.00">PostProposalService</text>
</g>
<!-- PostProposalService&#45;&gt;AppModule -->
<g id="edge21" class="edge">
<title>PostProposalService&#45;&gt;AppModule</title>
<path fill="none" stroke="black" d="M478,-122.29C478,-144.21 478,-178 478,-178 478,-178 1844.33,-178 1844.33,-178"/>
<polygon fill="black" stroke="black" points="1844.33,-181.5 1854.33,-178 1844.33,-174.5 1844.33,-181.5"/>
</g>
<!-- ProposalService -->
<g id="node23" class="node">
<title>ProposalService</title>
<ellipse fill="#fdb462" stroke="black" cx="296" cy="-104" rx="73.57" ry="18"/>
<text text-anchor="middle" x="296" y="-99.8" font-family="Times,serif" font-size="14.00">ProposalService</text>
</g>
<!-- ProposalService&#45;&gt;AppModule -->
<g id="edge22" class="edge">
<title>ProposalService&#45;&gt;AppModule</title>
<path fill="none" stroke="black" d="M296,-122.25C296,-145.02 296,-181 296,-181 296,-181 1844.03,-181 1844.03,-181"/>
<polygon fill="black" stroke="black" points="1844.03,-184.5 1854.03,-181 1844.03,-177.5 1844.03,-184.5"/>
</g>
<!-- UserRegisterService -->
<g id="node24" class="node">
<title>UserRegisterService</title>
<ellipse fill="#fdb462" stroke="black" cx="114" cy="-104" rx="90.3" ry="18"/>
<text text-anchor="middle" x="114" y="-99.8" font-family="Times,serif" font-size="14.00">UserRegisterService</text>
</g>
<!-- UserRegisterService&#45;&gt;AppModule -->
<g id="edge23" class="edge">
<title>UserRegisterService&#45;&gt;AppModule</title>
<path fill="none" stroke="black" d="M114,-122.15C114,-145.76 114,-184 114,-184 114,-184 1844.14,-184 1844.14,-184"/>
<polygon fill="black" stroke="black" points="1844.14,-187.5 1854.14,-184 1844.14,-180.5 1844.14,-187.5"/>
</g>
</g>
</svg>
