<?xml version="1.0" encoding="UTF-8" standalone="no"?>
<!DOCTYPE svg PUBLIC "-//W3C//DTD SVG 1.1//EN"
 "http://www.w3.org/Graphics/SVG/1.1/DTD/svg11.dtd">
<!-- Generated by graphviz version 2.44.1 (20200629.0846)
 -->
<!-- Title: dependencies Pages: 1 -->
<svg width="3581pt" height="284pt"
 viewBox="0.00 0.00 3581.00 284.00" xmlns="http://www.w3.org/2000/svg" xmlns:xlink="http://www.w3.org/1999/xlink">
<g id="graph0" class="graph" transform="scale(1 1) rotate(0) translate(4 280)">
<title>dependencies</title>
<polygon fill="white" stroke="transparent" points="-4,4 -4,-280 3577,-280 3577,4 -4,4"/>
<text text-anchor="start" x="1765.51" y="-42.4" font-family="sans-serif" font-weight="bold" font-size="14.00">Legend</text>
<polygon fill="#ffffb3" stroke="transparent" points="1552.5,-10 1552.5,-30 1572.5,-30 1572.5,-10 1552.5,-10"/>
<text text-anchor="start" x="1576.13" y="-15.4" font-family="sans-serif" font-size="14.00"> &#160;Declarations</text>
<polygon fill="#8dd3c7" stroke="transparent" points="1665.5,-10 1665.5,-30 1685.5,-30 1685.5,-10 1665.5,-10"/>
<text text-anchor="start" x="1689.23" y="-15.4" font-family="sans-serif" font-size="14.00"> &#160;Module</text>
<polygon fill="#80b1d3" stroke="transparent" points="1751.5,-10 1751.5,-30 1771.5,-30 1771.5,-10 1751.5,-10"/>
<text text-anchor="start" x="1775.28" y="-15.4" font-family="sans-serif" font-size="14.00"> &#160;Bootstrap</text>
<polygon fill="#fdb462" stroke="transparent" points="1848.5,-10 1848.5,-30 1868.5,-30 1868.5,-10 1848.5,-10"/>
<text text-anchor="start" x="1872.17" y="-15.4" font-family="sans-serif" font-size="14.00"> &#160;Providers</text>
<polygon fill="#fb8072" stroke="transparent" points="1944.5,-10 1944.5,-30 1964.5,-30 1964.5,-10 1944.5,-10"/>
<text text-anchor="start" x="1968.23" y="-15.4" font-family="sans-serif" font-size="14.00"> &#160;Exports</text>
<g id="clust1" class="cluster">
<title>cluster_AppModule</title>
<polygon fill="none" stroke="black" stroke-dasharray="1,5" points="8,-70 8,-268 3565,-268 3565,-70 8,-70"/>
</g>
<g id="clust21" class="cluster">
<title>cluster_AppModule_bootstrap</title>
<polygon fill="none" stroke="black" points="1640,-208 1640,-260 1764,-260 1764,-208 1640,-208"/>
</g>
<g id="clust22" class="cluster">
<title>cluster_AppModule_providers</title>
<polygon fill="none" stroke="black" points="2627,-78 2627,-130 3557,-130 3557,-78 2627,-78"/>
</g>
<g id="clust19" class="cluster">
<title>cluster_AppModule_imports</title>
<polygon fill="none" stroke="black" points="2475,-78 2475,-130 2619,-130 2619,-78 2475,-78"/>
</g>
<g id="clust2" class="cluster">
<title>cluster_AppModule_declarations</title>
<polygon fill="none" stroke="black" points="16,-78 16,-130 2467,-130 2467,-78 16,-78"/>
</g>
<!-- ApiResponseComponent -->
<g id="node1" class="node">
<title>ApiResponseComponent</title>
<polygon fill="#ffffb3" stroke="black" points="2458.98,-122 2303.02,-122 2303.02,-86 2458.98,-86 2458.98,-122"/>
<text text-anchor="middle" x="2381" y="-99.8" font-family="Times,serif" font-size="14.00">ApiResponseComponent</text>
</g>
<!-- AppModule -->
<g id="node17" class="node">
<title>AppModule</title>
<polygon fill="#8dd3c7" stroke="black" points="1743.66,-187 1740.66,-191 1719.66,-191 1716.66,-187 1660.34,-187 1660.34,-151 1743.66,-151 1743.66,-187"/>
<text text-anchor="middle" x="1702" y="-164.8" font-family="Times,serif" font-size="14.00">AppModule</text>
</g>
<!-- ApiResponseComponent&#45;&gt;AppModule -->
<g id="edge1" class="edge">
<title>ApiResponseComponent&#45;&gt;AppModule</title>
<path fill="none" stroke="black" d="M2381,-122.3C2381,-140.27 2381,-165 2381,-165 2381,-165 1753.71,-165 1753.71,-165"/>
<polygon fill="black" stroke="black" points="1753.71,-161.5 1743.71,-165 1753.71,-168.5 1753.71,-161.5"/>
</g>
<!-- AppComponent -->
<g id="node2" class="node">
<title>AppComponent</title>
<polygon fill="#ffffb3" stroke="black" points="2284.94,-122 2179.06,-122 2179.06,-86 2284.94,-86 2284.94,-122"/>
<text text-anchor="middle" x="2232" y="-99.8" font-family="Times,serif" font-size="14.00">AppComponent</text>
</g>
<!-- AppComponent&#45;&gt;AppModule -->
<g id="edge2" class="edge">
<title>AppComponent&#45;&gt;AppModule</title>
<path fill="none" stroke="black" d="M2232,-122.04C2232,-138.73 2232,-161 2232,-161 2232,-161 1754.03,-161 1754.03,-161"/>
<polygon fill="black" stroke="black" points="1754.03,-157.5 1744.03,-161 1754.03,-164.5 1754.03,-157.5"/>
</g>
<!-- CommentComponent -->
<g id="node3" class="node">
<title>CommentComponent</title>
<polygon fill="#ffffb3" stroke="black" points="2161.06,-122 2024.94,-122 2024.94,-86 2161.06,-86 2161.06,-122"/>
<text text-anchor="middle" x="2093" y="-99.8" font-family="Times,serif" font-size="14.00">CommentComponent</text>
</g>
<!-- CommentComponent&#45;&gt;AppModule -->
<g id="edge3" class="edge">
<title>CommentComponent&#45;&gt;AppModule</title>
<path fill="none" stroke="black" d="M2093,-122.28C2093,-137.95 2093,-158 2093,-158 2093,-158 1753.84,-158 1753.84,-158"/>
<polygon fill="black" stroke="black" points="1753.84,-154.5 1743.84,-158 1753.84,-161.5 1753.84,-154.5"/>
</g>
<!-- CreateProposalComponent -->
<g id="node4" class="node">
<title>CreateProposalComponent</title>
<polygon fill="#ffffb3" stroke="black" points="2006.36,-122 1839.64,-122 1839.64,-86 2006.36,-86 2006.36,-122"/>
<text text-anchor="middle" x="1923" y="-99.8" font-family="Times,serif" font-size="14.00">CreateProposalComponent</text>
</g>
<!-- CreateProposalComponent&#45;&gt;AppModule -->
<g id="edge4" class="edge">
<title>CreateProposalComponent&#45;&gt;AppModule</title>
<path fill="none" stroke="black" d="M1923,-122.12C1923,-136.78 1923,-155 1923,-155 1923,-155 1753.83,-155 1753.83,-155"/>
<polygon fill="black" stroke="black" points="1753.83,-151.5 1743.83,-155 1753.83,-158.5 1753.83,-151.5"/>
</g>
<!-- ErrorComponent -->
<g id="node5" class="node">
<title>ErrorComponent</title>
<polygon fill="#ffffb3" stroke="black" points="1821.37,-122 1710.63,-122 1710.63,-86 1821.37,-86 1821.37,-122"/>
<text text-anchor="middle" x="1766" y="-99.8" font-family="Times,serif" font-size="14.00">ErrorComponent</text>
</g>
<!-- ErrorComponent&#45;&gt;AppModule -->
<g id="edge5" class="edge">
<title>ErrorComponent&#45;&gt;AppModule</title>
<path fill="none" stroke="black" d="M1727.2,-122.11C1727.2,-122.11 1727.2,-140.99 1727.2,-140.99"/>
<polygon fill="black" stroke="black" points="1723.7,-140.99 1727.2,-150.99 1730.7,-140.99 1723.7,-140.99"/>
</g>
<!-- FeedComponent -->
<g id="node6" class="node">
<title>FeedComponent</title>
<polygon fill="#ffffb3" stroke="black" points="1692.05,-122 1583.95,-122 1583.95,-86 1692.05,-86 1692.05,-122"/>
<text text-anchor="middle" x="1638" y="-99.8" font-family="Times,serif" font-size="14.00">FeedComponent</text>
</g>
<!-- FeedComponent&#45;&gt;AppModule -->
<g id="edge6" class="edge">
<title>FeedComponent&#45;&gt;AppModule</title>
<path fill="none" stroke="black" d="M1676.22,-122.11C1676.22,-122.11 1676.22,-140.99 1676.22,-140.99"/>
<polygon fill="black" stroke="black" points="1672.72,-140.99 1676.22,-150.99 1679.72,-140.99 1672.72,-140.99"/>
</g>
<!-- FilterComponent -->
<g id="node7" class="node">
<title>FilterComponent</title>
<polygon fill="#ffffb3" stroke="black" points="1565.66,-122 1454.34,-122 1454.34,-86 1565.66,-86 1565.66,-122"/>
<text text-anchor="middle" x="1510" y="-99.8" font-family="Times,serif" font-size="14.00">FilterComponent</text>
</g>
<!-- FilterComponent&#45;&gt;AppModule -->
<g id="edge7" class="edge">
<title>FilterComponent&#45;&gt;AppModule</title>
<path fill="none" stroke="black" d="M1510,-122.12C1510,-136.78 1510,-155 1510,-155 1510,-155 1650.34,-155 1650.34,-155"/>
<polygon fill="black" stroke="black" points="1650.34,-158.5 1660.34,-155 1650.34,-151.5 1650.34,-158.5"/>
</g>
<!-- ForgetPasswordComponent -->
<g id="node8" class="node">
<title>ForgetPasswordComponent</title>
<polygon fill="#ffffb3" stroke="black" points="1435.54,-122 1264.46,-122 1264.46,-86 1435.54,-86 1435.54,-122"/>
<text text-anchor="middle" x="1350" y="-99.8" font-family="Times,serif" font-size="14.00">ForgetPasswordComponent</text>
</g>
<!-- ForgetPasswordComponent&#45;&gt;AppModule -->
<g id="edge8" class="edge">
<title>ForgetPasswordComponent&#45;&gt;AppModule</title>
<path fill="none" stroke="black" d="M1350,-122.28C1350,-137.95 1350,-158 1350,-158 1350,-158 1650.24,-158 1650.24,-158"/>
<polygon fill="black" stroke="black" points="1650.24,-161.5 1660.24,-158 1650.24,-154.5 1650.24,-161.5"/>
</g>
<!-- HomeComponent -->
<g id="node9" class="node">
<title>HomeComponent</title>
<polygon fill="#ffffb3" stroke="black" points="1245.55,-122 1130.45,-122 1130.45,-86 1245.55,-86 1245.55,-122"/>
<text text-anchor="middle" x="1188" y="-99.8" font-family="Times,serif" font-size="14.00">HomeComponent</text>
</g>
<!-- HomeComponent&#45;&gt;AppModule -->
<g id="edge9" class="edge">
<title>HomeComponent&#45;&gt;AppModule</title>
<path fill="none" stroke="black" d="M1188,-122.04C1188,-138.73 1188,-161 1188,-161 1188,-161 1649.94,-161 1649.94,-161"/>
<polygon fill="black" stroke="black" points="1649.94,-164.5 1659.94,-161 1649.94,-157.5 1649.94,-164.5"/>
</g>
<!-- LandingPageComponent -->
<g id="node10" class="node">
<title>LandingPageComponent</title>
<polygon fill="#ffffb3" stroke="black" points="1112.7,-122 957.3,-122 957.3,-86 1112.7,-86 1112.7,-122"/>
<text text-anchor="middle" x="1035" y="-99.8" font-family="Times,serif" font-size="14.00">LandingPageComponent</text>
</g>
<!-- LandingPageComponent&#45;&gt;AppModule -->
<g id="edge10" class="edge">
<title>LandingPageComponent&#45;&gt;AppModule</title>
<path fill="none" stroke="black" d="M1035,-122.3C1035,-140.27 1035,-165 1035,-165 1035,-165 1650.28,-165 1650.28,-165"/>
<polygon fill="black" stroke="black" points="1650.28,-168.5 1660.28,-165 1650.28,-161.5 1650.28,-168.5"/>
</g>
<!-- LoginComponent -->
<g id="node11" class="node">
<title>LoginComponent</title>
<polygon fill="#ffffb3" stroke="black" points="939.28,-122 824.72,-122 824.72,-86 939.28,-86 939.28,-122"/>
<text text-anchor="middle" x="882" y="-99.8" font-family="Times,serif" font-size="14.00">LoginComponent</text>
</g>
<!-- LoginComponent&#45;&gt;AppModule -->
<g id="edge11" class="edge">
<title>LoginComponent&#45;&gt;AppModule</title>
<path fill="none" stroke="black" d="M882,-122.17C882,-141.09 882,-168 882,-168 882,-168 1650.21,-168 1650.21,-168"/>
<polygon fill="black" stroke="black" points="1650.21,-171.5 1660.21,-168 1650.21,-164.5 1650.21,-171.5"/>
</g>
<!-- PasswordSpecsComponent -->
<g id="node12" class="node">
<title>PasswordSpecsComponent</title>
<polygon fill="#ffffb3" stroke="black" points="806.64,-122 639.36,-122 639.36,-86 806.64,-86 806.64,-122"/>
<text text-anchor="middle" x="723" y="-99.8" font-family="Times,serif" font-size="14.00">PasswordSpecsComponent</text>
</g>
<!-- PasswordSpecsComponent&#45;&gt;AppModule -->
<g id="edge12" class="edge">
<title>PasswordSpecsComponent&#45;&gt;AppModule</title>
<path fill="none" stroke="black" d="M723,-122.31C723,-142.15 723,-171 723,-171 723,-171 1650.25,-171 1650.25,-171"/>
<polygon fill="black" stroke="black" points="1650.25,-174.5 1660.25,-171 1650.25,-167.5 1650.25,-174.5"/>
</g>
<!-- RegisterComponent -->
<g id="node13" class="node">
<title>RegisterComponent</title>
<polygon fill="#ffffb3" stroke="black" points="620.98,-122 493.02,-122 493.02,-86 620.98,-86 620.98,-122"/>
<text text-anchor="middle" x="557" y="-99.8" font-family="Times,serif" font-size="14.00">RegisterComponent</text>
</g>
<!-- RegisterComponent&#45;&gt;AppModule -->
<g id="edge13" class="edge">
<title>RegisterComponent&#45;&gt;AppModule</title>
<path fill="none" stroke="black" d="M557,-122.03C557,-142.77 557,-174 557,-174 557,-174 1650.23,-174 1650.23,-174"/>
<polygon fill="black" stroke="black" points="1650.23,-177.5 1660.23,-174 1650.23,-170.5 1650.23,-177.5"/>
</g>
<!-- ResetLinkComponent -->
<g id="node14" class="node">
<title>ResetLinkComponent</title>
<polygon fill="#ffffb3" stroke="black" points="475.38,-122 336.62,-122 336.62,-86 475.38,-86 475.38,-122"/>
<text text-anchor="middle" x="406" y="-99.8" font-family="Times,serif" font-size="14.00">ResetLinkComponent</text>
</g>
<!-- ResetLinkComponent&#45;&gt;AppModule -->
<g id="edge14" class="edge">
<title>ResetLinkComponent&#45;&gt;AppModule</title>
<path fill="none" stroke="black" d="M406,-122.29C406,-144.21 406,-178 406,-178 406,-178 1649.98,-178 1649.98,-178"/>
<polygon fill="black" stroke="black" points="1649.98,-181.5 1659.98,-178 1649.98,-174.5 1649.98,-181.5"/>
</g>
<!-- ShareProposalComponent -->
<g id="node15" class="node">
<title>ShareProposalComponent</title>
<polygon fill="#ffffb3" stroke="black" points="318.2,-122 155.8,-122 155.8,-86 318.2,-86 318.2,-122"/>
<text text-anchor="middle" x="237" y="-99.8" font-family="Times,serif" font-size="14.00">ShareProposalComponent</text>
</g>
<!-- ShareProposalComponent&#45;&gt;AppModule -->
<g id="edge15" class="edge">
<title>ShareProposalComponent&#45;&gt;AppModule</title>
<path fill="none" stroke="black" d="M237,-122.25C237,-145.02 237,-181 237,-181 237,-181 1650.13,-181 1650.13,-181"/>
<polygon fill="black" stroke="black" points="1650.13,-184.5 1660.13,-181 1650.13,-177.5 1650.13,-184.5"/>
</g>
<!-- TeamComponent -->
<g id="node16" class="node">
<title>TeamComponent</title>
<polygon fill="#ffffb3" stroke="black" points="137.7,-122 24.3,-122 24.3,-86 137.7,-86 137.7,-122"/>
<text text-anchor="middle" x="81" y="-99.8" font-family="Times,serif" font-size="14.00">TeamComponent</text>
</g>
<!-- TeamComponent&#45;&gt;AppModule -->
<g id="edge16" class="edge">
<title>TeamComponent&#45;&gt;AppModule</title>
<path fill="none" stroke="black" d="M81,-122.15C81,-145.76 81,-184 81,-184 81,-184 1650.3,-184 1650.3,-184"/>
<polygon fill="black" stroke="black" points="1650.3,-187.5 1660.3,-184 1650.3,-180.5 1650.3,-187.5"/>
</g>
<!-- AppComponent  -->
<g id="node19" class="node">
<title>AppComponent </title>
<polygon fill="#80b1d3" stroke="black" points="1756.44,-252 1647.56,-252 1647.56,-216 1756.44,-216 1756.44,-252"/>
<text text-anchor="middle" x="1702" y="-229.8" font-family="Times,serif" font-size="14.00">AppComponent </text>
</g>
<!-- AppModule&#45;&gt;AppComponent  -->
<g id="edge18" class="edge">
<title>AppModule&#45;&gt;AppComponent </title>
<path fill="none" stroke="black" stroke-dasharray="1,5" d="M1702,-187.11C1702,-187.11 1702,-205.99 1702,-205.99"/>
<polygon fill="black" stroke="black" points="1698.5,-205.99 1702,-215.99 1705.5,-205.99 1698.5,-205.99"/>
</g>
<!-- AppRoutingModule -->
<g id="node18" class="node">
<title>AppRoutingModule</title>
<polygon fill="#8dd3c7" stroke="black" points="2611.27,-122 2608.27,-126 2587.27,-126 2584.27,-122 2482.73,-122 2482.73,-86 2611.27,-86 2611.27,-122"/>
<text text-anchor="middle" x="2547" y="-99.8" font-family="Times,serif" font-size="14.00">AppRoutingModule</text>
</g>
<!-- AppRoutingModule&#45;&gt;AppModule -->
<g id="edge17" class="edge">
<title>AppRoutingModule&#45;&gt;AppModule</title>
<path fill="none" stroke="black" d="M2547,-122.17C2547,-141.09 2547,-168 2547,-168 2547,-168 1753.9,-168 1753.9,-168"/>
<polygon fill="black" stroke="black" points="1753.9,-164.5 1743.9,-168 1753.9,-171.5 1753.9,-164.5"/>
</g>
<!-- GetProposalsService -->
<g id="node20" class="node">
<title>GetProposalsService</title>
<ellipse fill="#fdb462" stroke="black" cx="3458" cy="-104" rx="91.47" ry="18"/>
<text text-anchor="middle" x="3458" y="-99.8" font-family="Times,serif" font-size="14.00">GetProposalsService</text>
</g>
<!-- GetProposalsService&#45;&gt;AppModule -->
<g id="edge19" class="edge">
<title>GetProposalsService&#45;&gt;AppModule</title>
<path fill="none" stroke="black" d="M3458,-122.15C3458,-145.76 3458,-184 3458,-184 3458,-184 1753.67,-184 1753.67,-184"/>
<polygon fill="black" stroke="black" points="1753.68,-180.5 1743.67,-184 1753.67,-187.5 1753.68,-180.5"/>
</g>
<!-- GetTeamService -->
<g id="node21" class="node">
<title>GetTeamService</title>
<ellipse fill="#fdb462" stroke="black" cx="3273" cy="-104" rx="75.84" ry="18"/>
<text text-anchor="middle" x="3273" y="-99.8" font-family="Times,serif" font-size="14.00">GetTeamService</text>
</g>
<!-- GetTeamService&#45;&gt;AppModule -->
<g id="edge20" class="edge">
<title>GetTeamService&#45;&gt;AppModule</title>
<path fill="none" stroke="black" d="M3273,-122.25C3273,-145.02 3273,-181 3273,-181 3273,-181 1754.02,-181 1754.02,-181"/>
<polygon fill="black" stroke="black" points="1754.02,-177.5 1744.02,-181 1754.02,-184.5 1754.02,-177.5"/>
</g>
<!-- PostProposalService -->
<g id="node22" class="node">
<title>PostProposalService</title>
<ellipse fill="#fdb462" stroke="black" cx="3089" cy="-104" rx="90.34" ry="18"/>
<text text-anchor="middle" x="3089" y="-99.8" font-family="Times,serif" font-size="14.00">PostProposalService</text>
</g>
<!-- PostProposalService&#45;&gt;AppModule -->
<g id="edge21" class="edge">
<title>PostProposalService&#45;&gt;AppModule</title>
<path fill="none" stroke="black" d="M3089,-122.29C3089,-144.21 3089,-178 3089,-178 3089,-178 1753.89,-178 1753.89,-178"/>
<polygon fill="black" stroke="black" points="1753.89,-174.5 1743.89,-178 1753.89,-181.5 1753.89,-174.5"/>
</g>
<!-- ProposalService -->
<g id="node23" class="node">
<title>ProposalService</title>
<ellipse fill="#fdb462" stroke="black" cx="2907" cy="-104" rx="73.57" ry="18"/>
<text text-anchor="middle" x="2907" y="-99.8" font-family="Times,serif" font-size="14.00">ProposalService</text>
</g>
<!-- ProposalService&#45;&gt;AppModule -->
<g id="edge22" class="edge">
<title>ProposalService&#45;&gt;AppModule</title>
<path fill="none" stroke="black" d="M2907,-122.03C2907,-142.77 2907,-174 2907,-174 2907,-174 1753.83,-174 1753.83,-174"/>
<polygon fill="black" stroke="black" points="1753.83,-170.5 1743.83,-174 1753.83,-177.5 1753.83,-170.5"/>
</g>
<!-- UserRegisterService -->
<g id="node24" class="node">
<title>UserRegisterService</title>
<ellipse fill="#fdb462" stroke="black" cx="2725" cy="-104" rx="90.3" ry="18"/>
<text text-anchor="middle" x="2725" y="-99.8" font-family="Times,serif" font-size="14.00">UserRegisterService</text>
</g>
<!-- UserRegisterService&#45;&gt;AppModule -->
<g id="edge23" class="edge">
<title>UserRegisterService&#45;&gt;AppModule</title>
<path fill="none" stroke="black" d="M2725,-122.31C2725,-142.15 2725,-171 2725,-171 2725,-171 1753.69,-171 1753.69,-171"/>
<polygon fill="black" stroke="black" points="1753.69,-167.5 1743.69,-171 1753.69,-174.5 1753.69,-167.5"/>
</g>
</g>
</svg>
